<svg xmlns="http://www.w3.org/2000/svg" viewBox="0 0 656.05 267.65"><defs><style>.cls-1{fill:#f5b3b4;}.cls-2{fill:#c43b3b;}.cls-3{fill:#fff;}.cls-4{fill:#f6ab36;}.cls-5{fill:#fdfaf2;}.cls-6{fill:#fddc67;}</style></defs><g id="Layer_2_copy_图像" data-name="Layer 2 copy 图像"><g id="南"><path d="M682,97.74A11.3,11.3,0,0,1,684.79,99c1.66,1.39,3.71,1.79,5.63,2.55a10.35,10.35,0,0,1,1.75,1c.91.58,1.8,1.17,2.67,1.79a8.38,8.38,0,0,1,3.46,4.27A6.35,6.35,0,0,0,699,110c2.25,3.77,3,7.9,3.22,12.23.17,2.92-.46,5.67-.87,8.51a44.72,44.72,0,0,0-.1,6.45c0,.86.6,1.07,1.31,1,2.11-.18,4.2-.52,6.31-.55a71.74,71.74,0,0,1,8.8.24c3,.31,6,1,8.94,1.59a5.74,5.74,0,0,1,1.89.7c2.09,1.31,2.05,3.1.47,5a28.06,28.06,0,0,1-8.54,6.8c-1.4.75-2.92,1.28-4.38,1.91-4.76,2-9.68,3.7-14.06,6.56-1,.67-2.32.9-3.37,1.52-2.67,1.57-5.25,3.29-7.92,4.87a52,52,0,0,0-9.89,8.08c-1.6,1.57-1.83,3.75-1.84,5.9,0,.77.66.87,1.3.93a25.31,25.31,0,0,0,11.13-1.79c8.07-2.94,16.3-5.14,24.91-5.54A29,29,0,0,1,724,175a13.68,13.68,0,0,1,6.87,4.1c2.05,2.15,4.5,3.92,6.65,6,5.74,5.54,10.91,11.52,14.13,18.94a36.11,36.11,0,0,1,2.47,10.79c.28,2.74.65,5.47,1.09,8.19,1.69,10.68,1.33,21.43,1.18,32.16a22.83,22.83,0,0,1-3.1,10.71c-1.09,1.95-2.05,4-3.16,5.9-1.77,3.12-3.49,6.29-5.47,9.28a30.23,30.23,0,0,1-8.87,8.28c-.26.18-.54.34-.81.51-3.27,2-6.4,4.38-9.86,6a46.2,46.2,0,0,1-9.43,3c-2.94.68-6,.91-9,1.34-2.32.34-4.63.84-7,1-3.65.24-7.32.37-11,.34A86,86,0,0,1,677.1,301c-4.37-.62-8.32-2.16-10.93-6.34a48.58,48.58,0,0,1-6.69-19.28c-.38-2.76-.71-5.52-1.11-8.27a1,1,0,0,0-.7-.56c-2.8-.3-5.6-.55-8.4-.82a3.82,3.82,0,0,1-2.85-2.5,47.69,47.69,0,0,1-.76-5.92,8.3,8.3,0,0,1,2.24-5.78c2.1-2.45,4.16-4.94,6.21-7.43a4.1,4.1,0,0,0,.81-3c-.12-2.1,0-4.21,0-6.32,0-2.51,0-5,0-7.65a6.55,6.55,0,0,0-.91.43c-4,2.7-8.18,5.29-12.12,8.15a6.2,6.2,0,0,0-1.55,7.68,4.22,4.22,0,0,1,.21.7c-1.1-.54-2-.94-2.83-1.39-2.07-1.1-4.2-2-5.87-3.82-1.83-2-2.07-4.14-1.64-6.64.52-3,2.82-4.59,4.88-6.2,4.3-3.36,8.85-6.4,13.3-9.57,2.49-1.78,5-3.59,7.47-5.3a5.19,5.19,0,0,0,2.36-4.78c0-2.27,0-4.55,0-6.82A30.94,30.94,0,0,1,660.05,188c.72-2,2.2-3.74,3.4-5.55.61-.92,1.4-1.72,2-2.62s1.18-1.89,1.84-2.79c2-2.73,2.12-7.73,0-10.09a6,6,0,0,0-2.34-1.74,42.53,42.53,0,0,0-5.88-1.59c-2.84-.56-5.72-.92-8.57-1.44a18,18,0,0,1-3.29-1,2.21,2.21,0,0,1-1-1.1c-.38-.86-.14-1.39.94-1.54,3.07-.43,6.15-.9,9.21-1.45,3.22-.58,6.47-1.09,9.61-2a48.06,48.06,0,0,0,6.44-2.8,10.47,10.47,0,0,0,1.7-.87c1.79-1.24,3.57-2.49,5.31-3.79a9.83,9.83,0,0,0,1.89-1.81,8.83,8.83,0,0,0,1.6-2.6c.92-2.88,1.56-5.85,2.51-8.72a108.72,108.72,0,0,0,4.21-18.76,15.15,15.15,0,0,0-.1-5.66,17.61,17.61,0,0,0-2.67-5.66c-1.19-1.7-2.93-3-4.35-4.55a7.7,7.7,0,0,1-1-1.79Zm-1.16,167.9a18.69,18.69,0,0,1,.2,2c0,3.9,0,7.81,0,11.72s0,7.59,0,11.38c0,2.58,1.4,4.2,4,4.36a48.25,48.25,0,0,0,16.83-1.61,44.29,44.29,0,0,0,5.59-2.42c4.75-2.19,9.49-4.46,13.49-7.9s8-6.41,10.76-10.8q2.46-3.89,4.91-7.78a3.92,3.92,0,0,0,.44-1c.71-2.56,1.43-5.11,2.09-7.68s1.18-4.86,1.76-7.29a3.93,3.93,0,0,0,.06-.48c.45-4.68,1.12-9.35,1.31-14a146.73,146.73,0,0,0,0-18c-.42-4.83-.77-9.75-2.5-14.43a33.55,33.55,0,0,0-3.89-8.17,67,67,0,0,0-8-9.37,9.43,9.43,0,0,0-7.75-2.91c-1.86.19-3.72.46-5.59.58a39.9,39.9,0,0,0-15.16,4c-3.62,1.76-7.16,3.71-10.66,5.7-2.84,1.61-5.68,3.24-7.77,5.89-1.14,1.46-1.35,5.88-.15,7.26a3.44,3.44,0,0,0,1.17,1c1.89.83,3.81,1.54,5.7,2.36,1.46.63,2.88,1.34,4.31,2.05s2.72,1.49,4.14,2.11c2.51,1.1,4.53,2.6,5,5.5.43,3.06.38,6-2.59,8-3.41,2.28-6.82,4.57-10.23,6.84a42,42,0,0,0-4.48,3,8.25,8.25,0,0,0-2.35,3.35c-.83,2.41-.52,4.95-.08,7.44a2.88,2.88,0,0,0,.58,1c.87,1.21,2.18,1.36,3.53,1.36,3.19,0,6.39,0,9.58,0a3.23,3.23,0,0,1,1.89.51,7.62,7.62,0,0,1,2.14,2.47,62.85,62.85,0,0,1,2.39,6.25,2,2,0,0,1-1.54,2.87c-1.3.35-2.64.51-3.94.85C691,262.92,686,264.27,680.86,265.64Zm-8.14-42c0-2.18-.07-2.49-2-3a5,5,0,0,0-3.09.2c-3.12,1.31-6.18,2.77-9.2,4.3a3.16,3.16,0,0,0-1.37,1.8,19.21,19.21,0,0,0,.33,9.81c.39,1.57,1.11,1.83,2.49.9a4.09,4.09,0,0,0,.56-.45c2.23-2.16,4.46-4.31,6.68-6.49,1.3-1.28,2.47-2.73,3.89-3.88C672.18,225.89,672.89,225,672.72,223.66Zm-.2,42.65-11.85.42c.69,2.47,1.13,4.65,1.92,6.71a9.92,9.92,0,0,0,6,5.92,2.3,2.3,0,0,0,3.27-1.73,20.74,20.74,0,0,0,.25-3C672.24,271.93,672.38,269.19,672.52,266.31Z" transform="translate(-185.19 -97.74)"/></g><g id="书不带点"><path d="M513.72,171.58c.69,3.6-.9,6.91-3.4,9.85a34.61,34.61,0,0,1-3.33,3.06c-4.86,4.4-9.79,8.74-14.57,13.24-2.6,2.45-5,5.14-7.35,7.82a5.9,5.9,0,0,0-1,2.55,25.16,25.16,0,0,0-.37,3c-.12,1.31-.29,2.62-.3,3.93a7.46,7.46,0,0,1-2.21,5.38c-1.26,1.29-2.33,2.76-3.6,4-2,2-3.85,4.11-6.45,5.39a2.08,2.08,0,0,1-2.81-.59c-2.55-3.17-5.09-6.35-7.52-9.6a22.29,22.29,0,0,1-2.07-3.74,1.26,1.26,0,0,1,.92-1.93c2.17-.55,4.35-1.08,6.55-1.52a6,6,0,0,0,4.94-5c1.52-7.26,1.51-14.58,1.2-21.94-.21-5-.07-9.95-.05-14.93a3.88,3.88,0,0,0-1.56-3.33,2.18,2.18,0,0,0-2.62-.24,67.38,67.38,0,0,0-6.13,3.8,28.47,28.47,0,0,1-9.81,4.91c-3.23.86-6.47,1.68-9.7,2.53-1.49.4-3,.88-4.46,1.21a4,4,0,0,1-1.44-.25c.17-.46.21-1.06.53-1.36,2.83-2.71,5.62-5.47,8.61-8a27.55,27.55,0,0,1,5.6-3.53,9.14,9.14,0,0,1,3.74-.59,7.79,7.79,0,0,0,4-1c1.5-.87,3.12-1.53,4.61-2.41,2.3-1.37,4.54-3,5.05-5.77a24.56,24.56,0,0,0,.16-6.18,27.5,27.5,0,0,0-3.68-11,23.15,23.15,0,0,0-3.15-3.95c-1.66-1.89-3.57-3.58-4.42-6.07-.38-1.11-.19-1.56,1-1.69a5.88,5.88,0,0,1,1.45.07c4.1.54,8.27.69,12.23,2a22.11,22.11,0,0,1,8.94,5.08,60.85,60.85,0,0,1,4.5,4.44c1.91,2.36,3.6,4.91,5.33,7.42,1.36,2,1.29,4.37,1.83,6.59a16.32,16.32,0,0,0,.81,2.77,1.34,1.34,0,0,0,1.18.56c2-.63,3.67.22,5.36,1s3.4,1.49,5,2.44c2,1.22,3.92,2.65,5.86,4,.37.25.71.56,1.06.83a3.66,3.66,0,0,1,1.58,3C513.73,169.05,513.72,170.1,513.72,171.58Zm-27.14,7.89c.07,1.17.14,2.11.19,3.05a3.13,3.13,0,0,0,4.53,2.74c2.7-1.32,5.14-3,6.55-5.81a18.2,18.2,0,0,1,1.85-2.84c1.74-2.28,2.22-6.28.18-8.74-.6-.73-1.16-1.5-1.81-2.17-1.67-1.7-3.14-1.84-5.16-.55-1.56,1-3.07,2.06-4.66,3a2.35,2.35,0,0,0-1.32,2.07C486.81,173.38,486.69,176.54,486.58,179.47Z" transform="translate(-185.19 -97.74)"/><path d="M538.5,274c-2.22-.31-4.38-.79-6.55-.89-4.16-.18-8.34-.28-12.51-.17s-8.5.47-12.75.81c-3.49.27-7,.71-10.45,1-6,.5-11.95.9-17.91,1.46-2.36.22-4.67.87-7,1.12a107.16,107.16,0,0,0-15.5,3c-3.86,1-7.66,2.22-11.49,3.32-3.4,1-6.83,1.86-10.21,2.92-2.61.82-5.15,1.9-7.76,2.76a4,4,0,0,1-2.3.06,18.6,18.6,0,0,1-9.59-6.46c-1.52-2-1.79-6.37-.32-8.38a3.74,3.74,0,0,1,2.27-1.24,7.21,7.21,0,0,1,2.9.3,44.45,44.45,0,0,0,17,1.7c4.45-.53,8.87-1.3,13.31-1.92,3.47-.49,6.94-1,10.42-1.33,5.69-.62,11.39-1.09,17.07-1.75,2.38-.28,4.71-1,7.09-1.31,3.17-.44,6.36-.71,9.55-1q9-.93,18-1.82a12.8,12.8,0,0,1,2.14-.12c4,.32,7.55-3.7,7.12-7.34a3.08,3.08,0,0,0-.4-1.36,5,5,0,0,1-1-4c.13-.66.18-1.34.25-2a2.88,2.88,0,0,1,4.53-2.35c1.43.82,2.77,1.8,4.18,2.67,4.71,2.92,8.07,7.3,11.92,11.13a20,20,0,0,1,2.89,4.17,4.73,4.73,0,0,1-1.57,6.45A11.09,11.09,0,0,1,538.5,274Z" transform="translate(-185.19 -97.74)"/></g><g id="洛不带点"><path d="M293.09,120.26a16.12,16.12,0,0,1,2.43-1.63c3-1.34,6.05-2.69,9.16-3.82a11,11,0,0,1,8.27-.18A21.72,21.72,0,0,1,318,118c1.28,1,1,2.56.49,4-1.25,3.25-2.49,6.51-3.75,9.76s-2.41,6.66-3.92,9.84-3.46,6.36-5.21,9.53c-.22.41-.39.85-.67,1.45,1.38-.2,2.5-.44,3.63-.53,4.92-.38,9.83-.57,14.62,1,2.33.77,4.69,1.44,7,2.22a5,5,0,0,1,3.62,5.56c-.16,2.35.11,4.82-.53,7-1,3.59-2.64,7-4,10.5-.32.78-.85,1.49-1.1,2.29-1.86,5.94-5.1,11.23-7.83,16.75-.1.19-.18.4-.3.68,4.49,0,8.52,1.5,12.48,3.19a15.38,15.38,0,0,1,2.08,1.39c4.3,2.76,7.28,6.71,9.89,11a14.19,14.19,0,0,1,1.81,8.4c-.08,1.31-1.24,2.6-2.06,3.81-2.17,3.21-4.51,6.31-6.6,9.57-1.79,2.79-3.35,5.72-5,8.6-.32.56-.56,1.17-1,2.1.92-.18,1.47-.26,2-.4l11.46-2.82c.65-.16,1.3-.33,2-.47,4.34-.92,6.32.24,8.41,4.27a43.65,43.65,0,0,1,2.61,6.59c1.16,3.51-.22,6.26-2.55,8.95-3.35,3.88-7.91,6-12,8.78-5.49,3.77-11.2,7.22-16.77,10.88-3.47,2.28-6.82,4.76-10.31,7-3,1.93-6.1,3.66-9.16,5.48l-.22-.27c1.62-1.69,3.15-3.48,4.89-5a250.09,250.09,0,0,0,18-18.22c.81-.89,1.88-1.54,2.65-2.46q5-6,9.91-12.1a3.43,3.43,0,0,0,.69-2.12c-.07-1.79-.93-2.43-2.73-2.23A65.74,65.74,0,0,0,325,256.16c-3.81,1.44-7.6,2.91-11.42,4.32a25.89,25.89,0,0,1-3.48.94c-1.6.34-2.33-1.05-2.57-2-.78-3.24-1-6.56,1.2-9.46a181.33,181.33,0,0,0,14.9-22.32c1.12-2,2.7-3.79,3.83-5.81,2.79-5,1.63-9.7-2.86-13.31-1.84-1.48-3.64-2.81-6-3.2-1.86-.3-2.27-.22-3.09,1.42a249.73,249.73,0,0,1-13.08,22.37c-2.12,3.31-4,6.81-5.86,10.25a255.48,255.48,0,0,1-14.77,23.38c-3.23,4.61-6.57,9.16-10.07,13.56a46.12,46.12,0,0,1-6.14,6.12,8.33,8.33,0,0,1-6.17,1.79,2.82,2.82,0,0,1-2.64-1.75c-1.68-3.85-3.36-7.7-5-11.57-.83-2-1.63-4-2.29-6-.78-2.41-1.5-4.86-2.05-7.33a23.5,23.5,0,0,1,.71-12.42,21,21,0,0,1,5.06-7.76,67.7,67.7,0,0,1,5.17-5.27c5.8-5,11.25-10.36,17.66-14.6,3.35-2.22,6.56-4.65,9.8-7,6.23-4.61,13.29-7.54,20.54-10a4.71,4.71,0,0,0,3.08-3.28c1.42-3.85,3-7.67,4.33-11.55.93-2.65,1.62-5.38,2.45-8.07.53-1.71,1.08-3.41,1.67-5.1a39,39,0,0,0,2.51-11.7c.17-5.5-3.85-7-8.12-6.35-4.61.73-7.84,3.89-11.14,6.86-2.16,1.95-4.33,3.88-6.54,5.76a1.24,1.24,0,0,1-1.16-.24,5.16,5.16,0,0,1-.43-5.92c1.72-3.44,3.51-6.85,5.54-10.1,3.66-5.83,5.85-12.26,7.79-18.77a56.89,56.89,0,0,0,1.43-8.85c.21-1.59-.48-2.3-2-2.89-2.68-1-5.38-.61-8.09-.33-1.49.15-3,.44-4.45.66Zm11.24,88.44a15.24,15.24,0,0,0-1.65.58c-5.16,2.57-10.42,5-15.43,7.79A109.27,109.27,0,0,0,262,236c-2.9,3-5.82,6-8.58,9.07a15.72,15.72,0,0,0-2.14,3.83c-1.41,3-1.08,6.22-.78,9.38.5,5.34,2.17,10.22,6.14,14.05,2,1.94,2,2.27,4.57.41a56.83,56.83,0,0,0,11.08-11.43c5-6.49,10.22-12.88,14.14-20.21,4.77-8.91,10-17.55,15-26.34C302.48,212.88,303.28,210.9,304.33,208.7Z" transform="translate(-185.19 -97.74)"/><path d="M205.94,208.42a30.14,30.14,0,0,1,6.44,10.68,15.23,15.23,0,0,1,.49,4.38c.12,9.85.13,19.7.29,29.54.05,3.12.41,6.23.69,9.35,0,.41.44.79.68,1.19a4.59,4.59,0,0,0,1.24-.81c2.21-2.93,4.42-5.87,6.54-8.86a32.46,32.46,0,0,0,1.94-3.52c3.56-6.67,7.23-13.29,10.62-20,2-4,3.62-8.17,5.33-12.3,4.43-10.7,8.81-21.43,13.22-32.14,1.66-4,3.57-7.92,5-12a61.15,61.15,0,0,1,8.16-15.32c-1.13,2.5-2.3,5-3.38,7.5-1.22,2.82-2.53,5.63-3.51,8.54-2.59,7.71-5.05,15.47-7.54,23.22-2.25,7-4.63,14-6.65,21.09-4.85,16.9-9.52,33.84-14.25,50.77-1.29,4.61-2.41,9.27-3.9,13.8a40.24,40.24,0,0,1-3.65,7.88,5.09,5.09,0,0,1-8,1.37,44,44,0,0,1-5.49-6.36,38.65,38.65,0,0,1-6.83-14.87,10.38,10.38,0,0,1-.23-2.94c.3-5,.71-10,1-15,.27-4.69.39-9.39.65-14.08.2-3.71.6-7.4.74-11.1.21-5.23.26-10.46.37-15.69C206,211.27,205.94,209.84,205.94,208.42Z" transform="translate(-185.19 -97.74)"/></g><g id="鱼"><path class="cls-1" d="M222.76,159.26c.1.41.18.71.24,1,.17.79.33,1.58.51,2.36.48,2.06.94,4.14,1.49,6.18.34,1.26.81,2.48,1.26,3.7a12.22,12.22,0,0,0,3.09,4.59c1.6,1.55,3.12,3.17,4.69,4.74.77.76,1.64,1.44,2.36,2.26a28.22,28.22,0,0,1,1.95,2.65c.27.38.11.73-.21,1a2.68,2.68,0,0,1-2,.69,28.57,28.57,0,0,1-4.71-.27c-1.57-.31-3.13-.68-4.69-1a.66.66,0,0,0-.88.43c-1.1,3.16-3.08,5.83-5,8.54a4.39,4.39,0,0,1-1.8,1.25,1.93,1.93,0,0,1-2.28-.93,6.72,6.72,0,0,1-1.11-3.17c-.1-1.43,0-2.87,0-4.31s0-2.59-.09-3.89c0-.71-.58-1.13-1-1.56-1-.93-2-1.82-3.08-2.71-1.46-1.22-2.94-2.41-4.4-3.64a.47.47,0,0,0-.62-.07c-.64.36-1.29.69-1.92,1a1.05,1.05,0,0,1-1.66-.62,10.71,10.71,0,0,1-.63-3c-.06-.51-.12-1-.23-1.54a1.08,1.08,0,0,0-.34-.53c-.65-.59-1.32-1.15-2-1.74s-1-.95-1.5-1.45c-1.16-1.21-2.35-2.41-3.47-3.67a25.82,25.82,0,0,1-3.53-5.29c-.44-.86-1-.94-1.82-.39a1.54,1.54,0,0,1-2.53-1.16,28.92,28.92,0,0,1-.06-3.09c0-1.31,0-2.62-.06-3.94-.06-1-.19-2-.35-3-.28-1.73-.7-3.45-.9-5.19s-.21-3.35-.25-5c0-1.31,0-2.63.05-3.94a5.71,5.71,0,0,1,.18-1.16,1.55,1.55,0,0,1,1.91-1.37c.43,0,.57-.1.62-.51A1.71,1.71,0,0,1,189.5,130a5.05,5.05,0,0,1,1.87.17c1,.14,2,.16,3,.38,1.56.34,3.1.75,4.62,1.21,1.23.38,2.43.84,3.63,1.31,2,.79,4.08,1.54,6,2.45a34.48,34.48,0,0,1,6,4,12.1,12.1,0,0,1,1.11,1.15,9.75,9.75,0,0,1,1,.82,26.06,26.06,0,0,1,1.84,2.35c.82,1.22,1.61,2.47,2.36,3.73a22.41,22.41,0,0,1,2.65,6.63c.24,1.06.56,2.09.81,3.14a8,8,0,0,1,.19,1.45.71.71,0,0,1-.92.73C223.45,159.47,223.2,159.38,222.76,159.26Zm13.6,27.43a7.12,7.12,0,0,0-.53-.72c-.88-.94-1.76-1.88-2.66-2.81-.69-.71-1.38-1.42-2.1-2.1-.46-.43-1-.78-1.47-1.19a17.75,17.75,0,0,1-2-1.83,8.63,8.63,0,0,1-1.85-2.72,31.16,31.16,0,0,0-1.31-3.41,29.7,29.7,0,0,1-1.8-5.87c-.65-2.68-1.06-5.42-1.56-8.14-.06-.33,0-.72.37-.79a3.76,3.76,0,0,1,1.1.06c.18,0,.36.08.67.15-.53-1-1.6-1.09-2.38-1.8l1.94.15a6.05,6.05,0,0,0-2.82-2.07c.78-.37,1.53.1,2.39,0l-2.66-1.35.05-.14,2.12.27c-.71-.82-1.67-1.13-2.31-1.86l1.3.36c-.12-.75-.79-.84-1.25-1.14s-.94-.56-1.41-.84l0-.08,2.15.59.08-.2-1.34-.7c-.45-.22-.92-.43-1.38-.64l.05-.17,2.17.31c-1-1-2.36-1.13-3.38-1.88l2.28.39.05-.13c-1-.8-2.28-1.12-3.29-1.8l2.07.15.07-.13c-1.12-.88-2.62-.88-3.9-1.39l0-.14,2.32,0V143l-3.1-.79,0-.18,2.59.34a.57.57,0,0,0-.31-.36c-.67-.2-1.35-.37-2-.56l-2-.58,0-.18,2.56.19.07-.14a10.29,10.29,0,0,0-1.45-.72c-.77-.23-1.58-.31-2.35-.52a13,13,0,0,1-1.56-.63l0-.1,3,.35,0-.18-5.56-1.73,0-.2,2.14.16,0-.24c-.83-.23-1.66-.43-2.47-.7-2.11-.69-4.2-1.44-6.32-2.11-1.5-.47-3-.85-4.55-1.25-1.09-.28-2.2-.54-3.3-.81-.43-.1-.81-.12-1.05.36s-.47.82-.67,1.25a1.76,1.76,0,0,1-1.43,1.16c-.53.05-.82.23-.77.79,0,.07,0,.14,0,.21.06,1.69.11,3.38.18,5.07.07,1.88.13,3.77.24,5.64.07,1.1.22,2.19.36,3.27s.39,2.32.51,3.48a15.47,15.47,0,0,1,0,2c0,1.2,0,1.22,1.13.86a1.08,1.08,0,0,1,1.29.27,3.09,3.09,0,0,1,.4.71,23.1,23.1,0,0,0,2.65,4.14c.57.89,1.22,1.72,1.85,2.56s1.07,1.44,1.66,2.11a19.27,19.27,0,0,0,1.55,1.44c.52.47,1.05.94,1.59,1.4s.9.74,1.35,1.12c.23.2.42.44.65.64a2.24,2.24,0,0,1,.88,1.54c.1,1,.19,2,.3,3,0,.51.18.56.6.31s.81-.45,1.19-.7a1.69,1.69,0,0,1,2.27.25c1,.93,2.07,1.83,3.08,2.77s1.89,1.82,2.83,2.74a10.64,10.64,0,0,1,2.3,2.48,6.13,6.13,0,0,1,.81,2.37c.17,1.65-.1,3.3.17,4.95.18,1.14.1,2.32.21,3.47a12.14,12.14,0,0,0,.38,1.64c.5-.14.6-.38.56-.78-.17-1.65-.34-3.3-.45-4.95,0-.79,0-1.59,0-2.38h.16l1,7.14h.19a1.81,1.81,0,0,0,.17-.59c-.14-1.62-.3-3.24-.44-4.86-.05-.53-.06-1.06-.09-1.6.9,1.76.93,3.74,1.57,5.58.22-.31.5-.64.46-.94-.11-1-.3-2-.51-3-.18-.85-.41-1.69-.62-2.53l.18-.06,1.66,4.74a.76.76,0,0,0,.25-.9c-.3-1-.59-2.05-.87-3.08-.06-.2-.09-.4-.13-.6l.16-.06,1.34,3.24H223c0-.2.17-.42.12-.59-.33-1-.67-2-1-3-.2-.54-.47-1.06-.71-1.59a14.73,14.73,0,0,1,1.27,1.84c.39.64.77,1.29,1.2,2a6,6,0,0,0-.8-3l.13-.07,1.26,1.54a.52.52,0,0,0,0-.46c-.15-.25-.35-.46-.52-.7l-1.17-1.69.19-.14,1.94,2.42.17-.11-1-2,.08,0,1.37,1.51.15-.11-.83-1.31.06-.05,1.07,1.19.12-.11-.65-1.2.19-.12c.25.32.48.64.74,1s.5.69,1,.48l-1-1.06.13-.13,2,1.64.11-.13-2.27-2.5.14-.13c.65.61,1.27,1.25,2,1.83.5.43.8,1.2,1.71,1.07l-2.08-2.17.16-.17c.61.58,1.22,1.15,1.82,1.74s.93,1,1.78.8L228.32,183a5.19,5.19,0,0,1,1.39.76c.95.78,1.85,1.62,2.8,2.41a3.69,3.69,0,0,0,.86.35l.12-.2-3-2.74.13-.16a8.25,8.25,0,0,1,.84.57c.8.73,1.58,1.48,2.36,2.24a.82.82,0,0,0,1,.26c-2.13-2-4.44-3.78-6.41-5.89a3.71,3.71,0,0,1,.91.58c1.24,1,2.48,2.08,3.7,3.13.78.68,1.52,1.41,2.3,2.09C235.61,186.6,235.87,187,236.36,186.69Z" transform="translate(-185.19 -97.74)"/><path class="cls-1" d="M191.39,150.15a3.45,3.45,0,0,1,.28-.54c.27-.38.1-.54-.28-.65a2.19,2.19,0,0,1-1.65-2.11c.66.05,1.32.11,2,.14a13.68,13.68,0,0,0,5.83-.6,9,9,0,0,0,3.4-2.22c.73-.81,1.49-1.58,2.17-2.43.85-1,1.62-2.15,2.43-3.22a.45.45,0,0,1,.28-.17,11.81,11.81,0,0,1-1,3.92c1.42-.06,2.13-1.18,3.05-2,.13.76-.1,1.23-1.17,2.43a4.43,4.43,0,0,0,3.53-.1,1.84,1.84,0,0,1-1.59,1.11,1.79,1.79,0,0,0-1.31.88,6,6,0,0,1-.72.71,3.25,3.25,0,0,0-.3.51,1.68,1.68,0,0,0,.55.13,6.87,6.87,0,0,0,1.76-.26,7.12,7.12,0,0,0,1.5-.92,3,3,0,0,0,.47-.52l.16.09-.73,1.63c1.15.35,2.31-.09,3.49-.06a5.17,5.17,0,0,1-2.11,1.35c-.43.15-.88.21-1.32.33a.61.61,0,0,0-.34.25c-.27.54-.51,1.1-.77,1.66a2.62,2.62,0,0,0,3.32-.94,10.69,10.69,0,0,1,1.36-1.63,12.7,12.7,0,0,1-.19,1.36,13.23,13.23,0,0,1-.48,1.33c-.11.3-.13.47.28.58a2.26,2.26,0,0,0,1.9-.17,3.2,3.2,0,0,1,.57-.21,1.65,1.65,0,0,1-1.27,1.28,17.37,17.37,0,0,1-1.92,0c-.24.76-.48,1.6-.79,2.42-.14.38.12.39.31.39.82,0,1.63-.07,2.44-.09,1,0,1.56-.79,2.21-1.39l.29-.28c.08,1.31-.78,2-1.61,2.73a3.49,3.49,0,0,0,3.15-.21A1.76,1.76,0,0,1,217,156a2.32,2.32,0,0,1-.7-.07,1,1,0,0,0-1.4.72,7,7,0,0,1-.52.92c-.15.25-.15.51.17.56a11.58,11.58,0,0,0,2.11.19,3.83,3.83,0,0,0,2.23-1.19s.08-.12.16-.14a3.11,3.11,0,0,1-.68,2.16l1.76.36c-.47.52-1.09.42-1.61.59-.12,0-.29.05-.35.13-.41.56-.8,1.14-1.21,1.73,1.27,1,2.67.33,4,.41a9.11,9.11,0,0,1-1.85,3.23l2.5-.08a4.48,4.48,0,0,1-3.14,1.34c-.16,0-.37.22-.47.38-.36.63-.68,1.27-1.06,2a7.22,7.22,0,0,0,2.85-.34c1-.28,1.41-1.26,2.14-1.91-.15.62-.09,1.3-.6,1.81-.23.23-.44.46-.65.7s-.19.63.17.75c.53.18,1.08.28,1.64.42a1.58,1.58,0,0,1-1.23.63,1.1,1.1,0,0,0-1.06.71,8.54,8.54,0,0,1-.48.89,3.35,3.35,0,0,0,3.21-.91l.12.15L222,173.5l1.39.1.1.16A3,3,0,0,0,221.3,176a6.23,6.23,0,0,0,2.71-.22,8.14,8.14,0,0,1-3,1.12c-.89.19-1.77.4-2.65.63-.15,0-.27.25-.35.41a2.57,2.57,0,0,1-1.45,1.22l.56-1.66-2.36-.17a6,6,0,0,0,2.84-3.33,6.07,6.07,0,0,0-1-.14,1.85,1.85,0,0,0-1.61.77,3,3,0,0,1-2.52,1.19l1.69-1.59L214,174a8.06,8.06,0,0,1-3.28-.06c.49-.1,1-.18,1.47-.3a6,6,0,0,0,1.41-.41,3.63,3.63,0,0,0,1-.83c.43-.47.82-1,1.33-1.59a3.24,3.24,0,0,0-.72-.13c-.63,0-1.25.08-1.87.15a.58.58,0,0,0-.36.27,2.92,2.92,0,0,1-2.17,1.68c-.61.12-1.21.33-1.82.45a1.06,1.06,0,0,1-.73-.16,10.72,10.72,0,0,0,1.5-.55,16.69,16.69,0,0,0,1.83-1.17.58.58,0,0,0,.08-.54c0-.09-.3-.14-.46-.15l-2.25-.1a2.62,2.62,0,0,1-.85-.11l2.09-.79a5.55,5.55,0,0,0,2.87-2,8.18,8.18,0,0,0,.58-1.22,2.67,2.67,0,0,0-.48.13,3.64,3.64,0,0,1-2.3.21.73.73,0,0,0-.87.57,3.79,3.79,0,0,1-2,2.27,5.1,5.1,0,0,1-2.3.67,3.54,3.54,0,0,1-.68-.09c2-.44,3-2,4.19-3.48-.91-.14-1.66-.27-2.41-.36a.63.63,0,0,0-.69.37,2.3,2.3,0,0,1-2.5,1.43,4.49,4.49,0,0,0,1.46-2.1c-1.3.1-2.59.58-3.84-.4,1.89-.46,3.66-1,4.62-2.74a22.49,22.49,0,0,0-2.59-.15c-.32,0-.65.39-.94.65a3.7,3.7,0,0,1-2.79,1l1.94-2c-1.05-.2-2.08,0-2.95-.52v-.18c.29-.05.57-.12.86-.16a14,14,0,0,0,1.84-.23,3.2,3.2,0,0,0,1.31-.7c.59-.57,1.07-1.25,1.64-1.92-.21-.15-.3-.26-.4-.27-.83-.09-1.67-.22-2.5-.23a1.56,1.56,0,0,0-.89.49,6.41,6.41,0,0,0-.6.82,2.72,2.72,0,0,1-3.11.82c1.4-.4,2.49-1.06,2.71-2.67a6.66,6.66,0,0,1-4.81-.45l1.19-2.14-2.42.44,0-.16c.37-.18.76-.33,1.12-.54a2.56,2.56,0,0,0,.79-.62,11.22,11.22,0,0,0,1.1-1.78c.27-.56,0-.81-.58-.73a3.61,3.61,0,0,0-2.16.71c-.11.11-.33.11-.5.16l-.08-.12a2.86,2.86,0,0,1,.28-.4,8,8,0,0,0,1.1-1,11,11,0,0,0,.88-1.58c0-.05,0-.12,0-.2l-1.81-.21a1.46,1.46,0,0,0-1.24.69,4.49,4.49,0,0,1-.62.52Zm7.48,4.23a9.56,9.56,0,0,0,1.91-7.47c-.27.11-.54.19-.79.31l-2.81,1.33c-.27.13-.41.27-.33.6.23,1,.41,1.95.66,2.92A5.77,5.77,0,0,0,198.87,154.38Zm16.6,8.3c-1.09,0-2,0-2.94.06a.79.79,0,0,0-.53.28c-.52.69-1,1.4-1.49,2.11-.12.18-.16.36.14.43.15,0,.29.09.44.12a3.18,3.18,0,0,0,1.93,0,4.39,4.39,0,0,0,2.28-2.15C215.45,163.23,215.69,162.91,215.47,162.68Zm-10-8.13c-1-.14-1.93-.31-2.88-.39a.89.89,0,0,0-.66.44c-.33.65-.57,1.33-.86,2a3.4,3.4,0,0,0,3.37,0C205.2,156.18,205.3,155.36,205.47,154.55Zm1.54-4.07c-.48.1-.89.2-1.3.26a3.67,3.67,0,0,1-1.31.07,1.26,1.26,0,0,0-1.5.6l-.57.85c-.22.33-.08.58.2.77a3.35,3.35,0,0,0,2.82-.06A4.52,4.52,0,0,0,207,150.48Zm.86,4c-.76-.07-.76,0-1,.53s-.62,1.36-.93,2c0,.11-.13.29-.09.35a.51.51,0,0,0,.38.18,14.54,14.54,0,0,0,1.94-.5,3.12,3.12,0,0,0,1.83-2.23c.09-.27.12-.55-.38-.47A14.15,14.15,0,0,1,207.87,154.48Zm9.27,4.78c-1-.07-1.91-.15-2.83-.19a.66.66,0,0,0-.53.23c-.4.71-.75,1.44-1.15,2.24a4,4,0,0,0,2.84,0A3,3,0,0,0,217.14,159.26ZM210.33,158l.93-.15a3.93,3.93,0,0,0,3-2.44c.14-.28,0-.43-.29-.43-.72,0-1.45.05-2.18,0a.83.83,0,0,0-.86.54c-.28.65-.59,1.29-.9,1.92C209.83,157.87,210.15,157.89,210.33,158Zm-14.74-1c.75,0,1.43,0,2.09-.06a2.94,2.94,0,0,0,1.34-.37,4.67,4.67,0,0,0,1.62-2.16c0-.11,0-.26-.07-.39a1.4,1.4,0,0,0-.34.21,11,11,0,0,1-.72.93c-.59.55-.95.51-1.42-.11-.32-.43-.71-.82-1.09-1.25Zm16-6.39a5.16,5.16,0,0,1-2.9.28.3.3,0,0,0-.23.15c-.43.77-.85,1.55-1.33,2.45a5.3,5.3,0,0,0,3.1-.5C211.11,152.41,211.15,151.42,211.57,150.57Zm1,8.26a1,1,0,0,0-.18-.05c-.77,0-1.54,0-2.31,0-.1,0-.22.15-.29.25-.55.79-1.08,1.59-1.61,2.37A3.52,3.52,0,0,0,212.52,158.83Zm-1.68,3.64c-.84,0-1.69,0-2.54.05a.85.85,0,0,0-.54.41c-.34.59-.62,1.21-.92,1.81C208.28,165.51,210.15,164.68,210.84,162.47ZM204,161.32a5.15,5.15,0,0,0,4.25-2.14c.09-.13.06-.35.08-.52a1.8,1.8,0,0,0-.46,0c-.55.08-1.09.23-1.64.27s-1.14.13-1.33.84c0,.1-.16.17-.23.26a11.29,11.29,0,0,0-.75,1C203.82,161,203.93,161.22,204,161.32Zm13,5.41c-.67,0-1.28,0-1.88.05a.71.71,0,0,0-.49.21c-.47.58-.91,1.19-1.34,1.8a2.75,2.75,0,0,0-.24.52,1.84,1.84,0,0,0,.63.25,3.88,3.88,0,0,0,3.29-2.37A2,2,0,0,0,217,166.73Zm2.53,3.85c-.71-.05-1.4-.07-2.08-.17a.61.61,0,0,0-.71.39c-.32.55-.67,1.08-1,1.61-.17.28-.17.47.24.49a3.24,3.24,0,0,0,2.46-.71A2.55,2.55,0,0,0,219.53,170.58Zm-.52-7c-.69-.06-1.33-.11-2-.14-.14,0-.35,0-.41.08-.54.68-1,1.39-1.57,2.11.41.44,1.78.39,2.69-.17A3.81,3.81,0,0,0,219,163.55ZM208.54,147c-.67,0-1.29-.11-1.91-.13a.49.49,0,0,0-.37.18c-.59.75-1.15,1.51-1.69,2.24C206.53,149.35,207.8,148.9,208.54,147Zm12.53,27.36a3.77,3.77,0,0,0-.55,0c-.89.06-1.9-.14-2.27,1.07a2.56,2.56,0,0,1-.52.69c-.07.1-.12.21-.2.34C219.36,176.52,220.47,175.87,221.07,174.4Zm-18.64-29c1,.71,3-.12,3.47-1.56-.5-.08-1-.19-1.5-.24a.74.74,0,0,0-.51.22C203.39,144.36,202.91,144.9,202.43,145.43Zm1.89,1.55c-.52,0-1-.08-1.39-.09-.11,0-.31.14-.31.22,0,.46,0,.93,0,1.48A3.77,3.77,0,0,0,204.32,147Z" transform="translate(-185.19 -97.74)"/><path class="cls-1" d="M196.26,137.46c1-.14,2-.28,2.91-.39a1,1,0,1,1,.39,1.93c-1,.22-2.08.44-3.12.62-.87.15-.89.21-1.08,1.08a24.36,24.36,0,0,1-.72,2.49c-.1.33-.95.58-1.31.43a1.09,1.09,0,0,1-.66-1.18c.17-.76.31-1.53.47-2.3.08-.35-.14-.43-.4-.42s-.81.13-1.21.13a9.33,9.33,0,0,1-1.4-.11.54.54,0,0,1-.29-.27,1.16,1.16,0,0,1,.73-1.39c.83-.09,1.66-.17,2.5-.23s1-.21,1.21-1c.13-.46.25-.92.37-1.38a.94.94,0,0,1,1.42-.62c1.1.62.76.69.41,2C196.43,137,196.36,137.18,196.26,137.46Z" transform="translate(-185.19 -97.74)"/><path class="cls-1" d="M215.85,180.5c1.47,0,2.94.06,4.41.06a2,2,0,0,0,2-.88c.42-.72.87-1.42,1.31-2.13l.94-1.5.17.06c-.22,1-.41,2-.67,2.93-.19.68-.47,1.33-.72,2a.9.9,0,0,1-1,.58c-.86-.06-1.71-.13-2.56-.23s-2-.26-2.95-.42a5.45,5.45,0,0,1-.89-.29Z" transform="translate(-185.19 -97.74)"/></g><g id="logo有白色斑点"><path class="cls-2" d="M829.79,213.4a2.35,2.35,0,0,0,1.39.09.64.64,0,0,0,.48-.45,3.44,3.44,0,0,1,.34-.66.72.72,0,0,0,0-.85l-.61-.87a.55.55,0,0,1,.09-.84.52.52,0,0,1,.77.21,2.58,2.58,0,0,1,.23.54c.09.25.14.52.24.76a.58.58,0,0,0,1,.18,1.51,1.51,0,0,0,.27-.5c.15-.47.26-.59.57-.58a.81.81,0,0,1,.7.7,3.33,3.33,0,0,1,0,.63c-.11.76-.23,1.52-.33,2.27a1.26,1.26,0,0,0,.27,1.16c.15.15.08.32,0,.49a4.58,4.58,0,0,0-.3,1.68,1.42,1.42,0,0,0,0,.36.75.75,0,0,0,.69.43c.3,0,.33-.29.39-.51a.21.21,0,0,0,0-.15c-.27-1,.35-1.8.26-2.73a2.28,2.28,0,0,1,.21-.77c.1-.32.22-.63.32-1s.08-.43.32-.43a.67.67,0,0,1,.44.24,10.91,10.91,0,0,1,.91,1.31,2.36,2.36,0,0,1,.23.92c0,.44,0,.89,0,1.33,0,.61,0,1.21.1,1.81a2.52,2.52,0,0,1-.58,2,5,5,0,0,0-1,1.92,1.83,1.83,0,0,0-.08.57,1,1,0,0,0,1.32.82.67.67,0,0,0,.38-.54c.15-.57.28-1.14.44-1.71.09-.3.1-.29.5-.44a.92.92,0,0,1,.11.33,3.33,3.33,0,0,0,.48,1.72,1.52,1.52,0,0,1,.08,1.42,1.21,1.21,0,0,0-.07.63c0,.31.11.63.14,1a6.83,6.83,0,0,1,0,1.11,2,2,0,0,0,.28,1.37,6.19,6.19,0,0,1,.3.57,1.24,1.24,0,0,1,.08,1,2.6,2.6,0,0,0-.12.46c0,1.05-.12,2.1-.13,3.15a6.89,6.89,0,0,1-.18,1.69.58.58,0,0,1-.42.49.77.77,0,0,0-.25.1.75.75,0,0,0-.4,1.1c.07.17.18.31.26.47a1.5,1.5,0,0,1-.07,1.84,1.85,1.85,0,0,0-.41,1.44c0,.37.09.71.52.83a.47.47,0,0,1,.32.51,7.36,7.36,0,0,1-.51,2.81,4.24,4.24,0,0,0-.32,1.5,5.37,5.37,0,0,1-.34,1.81,5.16,5.16,0,0,0-.3,1.36,2.79,2.79,0,0,0,.22,1.61,2.15,2.15,0,0,1,.15,1.2,7.27,7.27,0,0,0,0,1.32,3.21,3.21,0,0,1-.2,1.62,10,10,0,0,0-.49,1.52,2,2,0,0,0,.34,1.62,1.79,1.79,0,0,1,.31,1.21,2.2,2.2,0,0,0,.12.84,8,8,0,0,1,.11,2.49,3.14,3.14,0,0,1-1,1.83,6.74,6.74,0,0,0-.58.82.91.91,0,0,0,.09,1.05,7.27,7.27,0,0,0,.8.86,1.14,1.14,0,0,1,.35,1.34,3.94,3.94,0,0,0-.28,1.73,5,5,0,0,0,.19.93,1.18,1.18,0,0,1-.17,1.29,1.77,1.77,0,0,0-.44,1.24,22.4,22.4,0,0,1-.37,3.28,10.52,10.52,0,0,1-.38,1.77,5.57,5.57,0,0,0-.07,1.16,4.49,4.49,0,0,1,0,.9,4.1,4.1,0,0,0,0,2c.12.47.2.94.31,1.41a1.39,1.39,0,0,0,.12.41,3.15,3.15,0,0,1,.3,1.71c0,.62,0,1.25-.1,1.86a4.34,4.34,0,0,1-.29,1.35,7.51,7.51,0,0,0-.46,2.18,5.15,5.15,0,0,1-.3,1.29,6.6,6.6,0,0,0-.45,1.8,3.37,3.37,0,0,1-.19.89,9.45,9.45,0,0,1-1,2.15l-.12.18a1.1,1.1,0,0,0,.47,1.7,3.73,3.73,0,0,1,.78.46,3.93,3.93,0,0,0,1.4,1c.09,0,.15.19.21.29s.18.35.28.52a.55.55,0,0,1,0,.73,1.32,1.32,0,0,0-.28.89c0,.36,0,.72,0,1.07a.69.69,0,0,0,.19.64.91.91,0,0,1,.31.81,2,2,0,0,0,.33,1.14,3.05,3.05,0,0,1,.6,1.9,4.21,4.21,0,0,0,.06.79c0,.2,0,.4,0,.59a.89.89,0,0,1-.53.8.67.67,0,0,0-.17,1.22,1.28,1.28,0,0,1,.53,1.15.27.27,0,0,0,0,.15,1.09,1.09,0,0,1-.19,1.28.27.27,0,0,0-.08.19,5.54,5.54,0,0,1-.83,2.22,8.92,8.92,0,0,1-.92,1.55,6,6,0,0,1-1,1l-.64.56a.85.85,0,0,0,0,1.38,1.18,1.18,0,0,1,.33,1,.62.62,0,0,1-.4.62.91.91,0,0,0-.4.25.38.38,0,0,0,.26.67.78.78,0,0,0,.75-.3,3.15,3.15,0,0,1,1.14-.94c.29-.15.54-.11.62.21a1.77,1.77,0,0,1-.21,1.73,2.38,2.38,0,0,0-.37.64,1,1,0,0,0,0,.88,2.61,2.61,0,0,1,.23,1.76A1.18,1.18,0,0,0,838,330a.81.81,0,0,1,.2.79.67.67,0,0,0,0,.42,1.12,1.12,0,0,1-.19,1.15,1.66,1.66,0,0,0-.21.59.73.73,0,0,0,.44.78c.44.24.54.37.38.83a1.39,1.39,0,0,0,.07,1.13,2,2,0,0,1-.16,1.89c-.31.61-.62,1.23-.91,1.86a.93.93,0,0,0-.06.83.9.9,0,0,1,0,.72,3.78,3.78,0,0,0-.16,1.89,3.53,3.53,0,0,1-.09.9,9.72,9.72,0,0,0,0,1.32,3.51,3.51,0,0,1-.37,2.27,15.88,15.88,0,0,0-.87,1.87,1.32,1.32,0,0,0,0,1.1,2,2,0,0,1-.34,2.14,2,2,0,0,0-.38,1,1.13,1.13,0,0,0,.21.73,1.59,1.59,0,0,1,.18,2.06c-.16.28-.3.57-.48.83a1.31,1.31,0,0,1-.92.67,1.73,1.73,0,0,0-1,.63,2,2,0,0,1-.86.59,1.51,1.51,0,0,0-1,1.35,2.57,2.57,0,0,0,0,.48,1.11,1.11,0,0,1-.68,1.11,4.11,4.11,0,0,0-1.09.85c-.21.21-.48.36-.69.57a4.22,4.22,0,0,0-.64.77c-.3.47-.29.51-.84.38a2.06,2.06,0,0,0-1.3.12.92.92,0,0,0-.32.18,2.06,2.06,0,0,1-1.72.56c-.9-.05-1.81-.09-2.71-.12a2.91,2.91,0,0,1-1.76-.49,5.32,5.32,0,0,0-1.13-.6,5.26,5.26,0,0,1-1-.65,2.59,2.59,0,0,0-1-.37,2.12,2.12,0,0,1-1.22-.71.36.36,0,0,0-.1-.11,8.11,8.11,0,0,1-1.71-1.75,2.51,2.51,0,0,0-1.1-.73,1.75,1.75,0,0,0-1.63.18,2.78,2.78,0,0,1-.57.29,1.26,1.26,0,0,1-1.22-.05c-.59-.36-1.2-.68-1.79-1s-.55-.46-.36-1a.9.9,0,0,0-.31-1.13c-.44-.34-.9-.64-1.33-1a6.2,6.2,0,0,1-1.86-1.64,2.28,2.28,0,0,0-.49-.49l-1.37-1.1a1.48,1.48,0,0,1-.44-.46,3.09,3.09,0,0,0-1.48-1.33,7.43,7.43,0,0,0-1.44-.79,1.21,1.21,0,0,1-.52-.51c-.55-.81-1.08-1.63-1.62-2.44a2.42,2.42,0,0,0-1.44-1,6.17,6.17,0,0,1-1.21-.53.76.76,0,0,0-.71-.08,3.21,3.21,0,0,1-1.79,0c-.26,0-.37-.27-.43-.49a.64.64,0,0,0-.72-.56,1.27,1.27,0,0,1-.46-.13c-.15-.05-.29-.14-.44-.18a6.85,6.85,0,0,1-1.78-.82,1.83,1.83,0,0,0-.8-.25,2.07,2.07,0,0,1-1.43-.72c-.42-.46-.86-.9-1.27-1.37a7.25,7.25,0,0,1-.53-.79,10,10,0,0,0-.93-1.66,1.41,1.41,0,0,1-.23-.74c-.09-1-.29-1.15-1.26-.87-.36.11-.71.23-1.07.33a1.22,1.22,0,0,1-1.22-.35c-.42-.4-.9-.74-1.32-1.16s-.48-.65-.76-.95c-.5-.52-.84-1.2-1.52-1.55a.37.37,0,0,1-.15-.51,3.81,3.81,0,0,1,.29-.52,1,1,0,0,0-.34-1.45,2.06,2.06,0,0,0-2-.23,5.55,5.55,0,0,1-1.36.26.89.89,0,0,1-.93-.47,3.14,3.14,0,0,0-.73-.77,1,1,0,0,1-.38-.79c0-.24,0-.49,0-.74a2.77,2.77,0,0,0-.72-2,3.45,3.45,0,0,1-.84-1.63c-.17-.82-.45-1.61-.68-2.41a2.48,2.48,0,0,0-.2-.44,3.81,3.81,0,0,1-.55-2.09c0-.32,0-.64,0-1a.75.75,0,0,0-.52-.78c-.45-.17-.54-.37-.32-.77a1.67,1.67,0,0,0,.13-1.67.45.45,0,0,1,.13-.54c.09-.09.19-.16.28-.24a1,1,0,0,0,.31-1.49,1.65,1.65,0,0,1,0-1.81c.44-.78.85-1.56,1.29-2.34a4.32,4.32,0,0,1,.46-.71,1.88,1.88,0,0,0,.44-1.39,1.28,1.28,0,0,1,.45-1.08,3.56,3.56,0,0,0,1-2.67,1.19,1.19,0,0,1,.19-.81c.17-.21.36-.42.67-.35a.77.77,0,0,1,.55.53,1.39,1.39,0,0,1,.11.52,3.6,3.6,0,0,1-.86,2.77,2.31,2.31,0,0,0-.7,1.79,1.14,1.14,0,0,0,.17.54c.34.48.58.49,1.07.16a1.43,1.43,0,0,0,.61-.85,6.32,6.32,0,0,1,1.18-2.18,1.75,1.75,0,0,0,.3-1.06c0-.92,0-1.85,0-2.77a16.23,16.23,0,0,1,.25-2.07,2.69,2.69,0,0,1,.34-.76,3.18,3.18,0,0,0,.34-.66,6.74,6.74,0,0,1,1.06-2.25c.32-.53.6-1.09.9-1.63a2.77,2.77,0,0,1,.22-.37c.46-.58.93-1.16,1.39-1.75.26-.34.46-.73.74-1,.92-1,1.86-2,2.79-2.93a1,1,0,0,1,1-.3,2.33,2.33,0,0,0,.53.07,1.26,1.26,0,0,0,1.42-1.09,3.85,3.85,0,0,0,0-1.85,1.72,1.72,0,0,1,.16-1.32,16,16,0,0,1,2-2.87,7.51,7.51,0,0,1,1.08-.94,2.91,2.91,0,0,0,.33-.26l1.38-1.55a3.7,3.7,0,0,1,.24-.29,5,5,0,0,0,1.27-1.54,2,2,0,0,0,.34-.83,4.47,4.47,0,0,1,1-2.3,2,2,0,0,0,.42-1.24c0-.69,0-1.38.1-2.07a.7.7,0,0,1,.86-.7l.37,0a.84.84,0,0,0,.81-1.31,7.14,7.14,0,0,0-.57-1,1.7,1.7,0,0,1-.3-1c0-.7-.07-1.39-.11-2.08a.71.71,0,0,0-.39-.6,1,1,0,0,1-.47-1q0-1.44-.09-2.88a2.21,2.21,0,0,0-.33-.82,4.87,4.87,0,0,1-.65-1.56,3,3,0,0,1,.7-2.23,2.61,2.61,0,0,0,.39-.69.54.54,0,0,0-.24-.73s0,0,0,0a1.26,1.26,0,0,1-.82-1.58,2.9,2.9,0,0,0,0-.59,2,2,0,0,0-.44-1.28,1,1,0,0,1,.19-1.57,2.13,2.13,0,0,0,.31-.29,1,1,0,0,0,0-1.61l-.24-.28a1.17,1.17,0,0,1-.14-1.56,3.9,3.9,0,0,0,.52-1.55,22.7,22.7,0,0,1,.52-2.45,6.1,6.1,0,0,1,.73-1.41,1.47,1.47,0,0,0,.05-1.56,6.22,6.22,0,0,0-.5-.76.74.74,0,0,1-.08-.88c.27-.46.53-.92.81-1.37s.4-.62.59-.94a1.18,1.18,0,0,0,.19-.37,25.78,25.78,0,0,1,1-2.58,1.29,1.29,0,0,1,1.06-.8c.33-.06.44,0,.58.32a3.48,3.48,0,0,1,.3,1.56,1.93,1.93,0,0,0,0,.42c0,.07.12.17.18.17a.33.33,0,0,0,.24-.15c.19-.4.35-.81.52-1.21a7.56,7.56,0,0,0,.23-2.22.41.41,0,0,0-.2-.32.45.45,0,0,0-.37.12c-.1.08-.14.24-.21.36a1.67,1.67,0,0,1-.24.35c-.21.18-.43.12-.49-.14-.16-.74.18-1.3.91-1.14a.58.58,0,0,0,.64-.26,2.15,2.15,0,0,0,.56-1.62,1.16,1.16,0,0,1,.63-1.24,2.15,2.15,0,0,0,.87-.85.81.81,0,0,0,.07-.7.86.86,0,0,1,.73-1.18.45.45,0,0,1,.33.09.45.45,0,0,1,0,.34c-.13.29-.28.57-.42.86a.69.69,0,0,0-.1.19c-.12.61-.26,1.21-.34,1.82a7,7,0,0,0,0,1.12,2.1,2.1,0,0,1-.19,1,1,1,0,0,0,0,.93.44.44,0,0,0,.43.33.41.41,0,0,0,.4-.37c.12-.62.23-1.25.35-1.88a2.09,2.09,0,0,1,.14-.56c.19-.42.41-.83.61-1.25a1.53,1.53,0,0,1,.61-.7,1.09,1.09,0,0,0,.53-1.2,2.05,2.05,0,0,1,.13-1.2,3.33,3.33,0,0,0,.22-1.36,2.8,2.8,0,0,1,.31-1.55,2.32,2.32,0,0,0,.22-1.3,3.49,3.49,0,0,1,.41-1.74,1.57,1.57,0,0,1,.47-.55A12.4,12.4,0,0,0,807,213.6a8.92,8.92,0,0,0,1.49-1.58c.06-.1.21-.15.29-.24.3-.33.59-.66.87-1,.15-.17.25-.4.41-.56a2.28,2.28,0,0,0,.75-1.19.78.78,0,0,1,.52-.57,1.56,1.56,0,0,0,1-1,1.31,1.31,0,0,1,.37-.45.77.77,0,0,1,.93-.15,10.83,10.83,0,0,0,1.33.53,2.31,2.31,0,0,0,.83,0c.31,0,.38-.32.54-.53a1.54,1.54,0,0,1,1.37-.79H818a5.44,5.44,0,0,0,1.88-.12,6.14,6.14,0,0,1,2,.08c.35,0,.7.13,1,.16a2,2,0,0,1,1,.32,1.52,1.52,0,0,0,1.66-.05c.62-.36.64-.37,1.22.06a1.24,1.24,0,0,0,1.31.07c.1,0,.18-.13.27-.18.38-.21.63-.13.71.29a4.92,4.92,0,0,1,.06,1.21,4,4,0,0,0,.06,1.38,2.61,2.61,0,0,1,0,.79,2,2,0,0,0,.14,1,4,4,0,0,1,.15.62c.06.25.13.51.18.77S829.76,213.1,829.79,213.4Z" transform="translate(-185.19 -97.74)"/><path d="M826,359c0,.08,0,.1,0,.11a.68.68,0,0,1-.07.2,1.13,1.13,0,0,0,.12,1.38,2.75,2.75,0,0,0,1.07.87.87.87,0,0,0,1.09-.27,1,1,0,0,0-.07-1,5.86,5.86,0,0,1-.41-.74,5.94,5.94,0,0,1-.35-.82.46.46,0,0,1,0-.38,6.65,6.65,0,0,1,.58-.61,2.63,2.63,0,0,0,.86-1.88c0-.57.07-1.14.12-1.7a2.32,2.32,0,0,0-.26-1.4,5.3,5.3,0,0,1-1-1.91.38.38,0,0,0-.12-.17c-.36-.5-.72-1-1.09-1.49a3.2,3.2,0,0,0-.43-.47c-.34-.29-.71-.53-1-.84a17.07,17.07,0,0,1-1.78-1.83c-.5-.66-1.22-1.07-1.69-1.73,0,0,0,0,0,0-.43-.4-1-.66-1.24-1.23a1.11,1.11,0,0,0-.39-.35c-.33-.24-.67-.46-1-.69a.61.61,0,0,1-.24-.61c0-.57,0-1.14.05-1.71,0-1.69,0-3.38,0-5.07s.08-3.49.11-5.24c0-2.42.08-4.84.13-7.26,0-.74,0-1.49.08-2.24a4.25,4.25,0,0,1,.07-.8,20.49,20.49,0,0,0,.32-3.66c.1-3.08.15-6.16.22-9.24,0-1.78.09-3.56.12-5.34,0-1.3,0-2.6,0-3.9.05-2.74.13-5.48.21-8.22a2.59,2.59,0,0,1,.09-.74,4.81,4.81,0,0,0,.09-1.85c-.06-.92-.08-1.85-.11-2.77,0-.2,0-.39,0-.59a1,1,0,0,0-.78-.91,2.19,2.19,0,0,1-.65-.32,8.46,8.46,0,0,0-1.62-1.11c-.27-.13-.43-.08-.51.22a1.12,1.12,0,0,0,0,.32c-.06,1.22-.16,2.45-.18,3.67,0,2.16,0,4.31,0,6.47,0,.26,0,.53.07.79.08.85.18,1.7.23,2.55a1.56,1.56,0,0,1-.19.76,2,2,0,0,0-.23.87l-.21,4.42c0,.55-.07,1.1-.06,1.65,0,1.39.1,2.78.08,4.16,0,2.67-.12,5.34-.18,8a3.26,3.26,0,0,0,0,1.17,5.08,5.08,0,0,1,.05,2.51c-.09,1-.08,1.92-.14,2.88-.05.78-.14,1.56-.23,2.34,0,.4-.16.8-.16,1.2,0,2,.06,4.06.07,6.09,0,1.44,0,2.88,0,4.32a8.64,8.64,0,0,1,0,1.44,8.37,8.37,0,0,0,0,2.18,1.51,1.51,0,0,1-.11.62.55.55,0,0,1-.51.41c-.29,0-.38-.23-.44-.45a3.07,3.07,0,0,0-1.42-1.87c-.25-.15-.42-.42-.66-.6s-.62-.41-.91-.64c-.74-.58-1.46-1.19-2.2-1.77a7.78,7.78,0,0,0-.7-.47c-.18-.12-.37-.22-.54-.35l-1.28-.94c-.41-.29-.83-.56-1.24-.83a15.85,15.85,0,0,0-1.52-1.14,16.74,16.74,0,0,1-2-1.43,1.79,1.79,0,0,0-1.77-.46c-.29.11-.45-.07-.58-.31a3.7,3.7,0,0,0-1-1.25,2.38,2.38,0,0,1-1.23-2.17,1.3,1.3,0,0,0-.24-.68,5,5,0,0,1-.72-1.1,5,5,0,0,0-1-1.62,7.26,7.26,0,0,1-.78-1.2c-.25-.48-.38-1-.61-1.52s-.51-.89-.76-1.34a1.88,1.88,0,0,1-.33-.6,2.5,2.5,0,0,0-.79-1.3c-.59-.64-1-1.4-1.55-2.07a4.18,4.18,0,0,1-.58-.75,13.22,13.22,0,0,0-1.66-2.2c-.61-.74-1.31-1.4-2-2.09a1.64,1.64,0,0,0-.33-.26,15.29,15.29,0,0,0-2-1.36,3.14,3.14,0,0,1-.86-.52,4.14,4.14,0,0,0-1.71-.7,2.28,2.28,0,0,0-2.07.83,3,3,0,0,0-.61,2c.05.49,0,1,0,1.5a17.6,17.6,0,0,0,.77,3.51,2.78,2.78,0,0,0,.16.4,9.67,9.67,0,0,1,.61,1.76,5.93,5.93,0,0,0,.72,1.76c.32.66.65,1.32,1,2,0,.05,0,.1,0,.15s.17.35.24.54a5.13,5.13,0,0,1,.38,1,1.24,1.24,0,0,0,.51.85,5.24,5.24,0,0,0,1.89.94,1.75,1.75,0,0,1,.83.33,3.51,3.51,0,0,1,.7,1.05,2.53,2.53,0,0,0,1,1.17c.29.18.57.36.84.56s.73.62,1.12.91,1,.72,1.56,1.08a2.6,2.6,0,0,0,1,.63.54.54,0,0,1,.21.16c.4.37.79.76,1.21,1.12a5.54,5.54,0,0,1,1.89,2.71,2.45,2.45,0,0,0,.75,1.39.78.78,0,0,1,.15.33l.69,1.77a.31.31,0,0,0,0,.1,6.87,6.87,0,0,1,.92,2.07,2.27,2.27,0,0,0,.47,1,.71.71,0,0,1,.16.28,2.47,2.47,0,0,0,.69,1,1.19,1.19,0,0,1,.4.66,3.08,3.08,0,0,0,.73,1.45c.17.28.5.21.63-.1a.68.68,0,0,0-.09-.75,1.72,1.72,0,0,1-.38-1,1.33,1.33,0,0,0-.19-.6,2,2,0,0,1-.35-1.11,1.36,1.36,0,0,0-.2-.7,1.89,1.89,0,0,1-.42-1.18,1.43,1.43,0,0,0-.09-.41,11.06,11.06,0,0,0-.61-1.36,8.6,8.6,0,0,1-.58-1.93,1.13,1.13,0,0,1,0-.32c0-.18,0-.39.25-.42a.61.61,0,0,1,.47.14,2.76,2.76,0,0,1,.38.56c.29.45.56.91.86,1.35a.47.47,0,0,0,.29.21,3.23,3.23,0,0,1,1.35.6c.47.34,1,.63,1.45,1s.9.69,1.32,1.06a4.69,4.69,0,0,1,1.26,1.29,1.55,1.55,0,0,0,.53.52c.36.25.78.43,1.12.71a2,2,0,0,0,1.11.44,5.83,5.83,0,0,0,.59,0,1.17,1.17,0,0,1,1.07.66c.26.45.56.86.86,1.29a2.08,2.08,0,0,0,.34.32l.76.56c.36.29.69.61,1.06.88a2.23,2.23,0,0,1,1.09,1.79,3.91,3.91,0,0,0,.33,1c.08.23.21.45.28.68.19.69.36,1.37.56,2.05a6.83,6.83,0,0,0,.29.75,10.23,10.23,0,0,1,.56,1.38,5.14,5.14,0,0,0,.94,1.66c.36.49.85.86,1.19,1.4a7.22,7.22,0,0,0,1.47,1.45c.59.49,1.26.86,1.84,1.35a2.66,2.66,0,0,0,1.36.55,4.15,4.15,0,0,1,.65.22,7.93,7.93,0,0,0,.89.32c.37.08.74.1,1.11.16Z" transform="translate(-185.19 -97.74)"/><path d="M814,263.75c.38.26.63.45.9.62s.49.27.74.41a9.32,9.32,0,0,0,1.34.75,5.08,5.08,0,0,1,1.28.63,2.61,2.61,0,0,0,1.37.67,1.86,1.86,0,0,1,.93.35q1.14.75,2.31,1.44a22.88,22.88,0,0,1,2.3,1.33,3,3,0,0,0,.3.14c0-.21.06-.37.07-.53,0-.85,0-1.7.07-2.56,0-.42,0-.85,0-1.28a.89.89,0,0,0-.38-.77,12.68,12.68,0,0,1-1.88-1.19c-.06-.07-.2-.07-.29-.12-.47-.24-1-.47-1.41-.74s-.62-.48-1-.66a1.73,1.73,0,0,0-1.82,0,1.85,1.85,0,0,1-.79.26c-.35,0-.48-.12-.61-.45-.21-.52-.45-1-.69-1.54a.24.24,0,0,0-.06-.08c-.24-.22-.47-.44-.72-.64a16.07,16.07,0,0,0-2.73-1.64.62.62,0,0,0-.77.1,6.18,6.18,0,0,1-1,.64,2,2,0,0,0-.89,1.58c0,.55,0,1.1,0,1.65s0,1,0,1.55v.63c0,.3,0,.6,0,.9a7.83,7.83,0,0,1-.33,3.63,4.39,4.39,0,0,1-.41.73c-.26.34-.54.66-.81,1a6.31,6.31,0,0,1-.44.58,2.86,2.86,0,0,0-.63,1.05c.26,0,.46.05.66.05a7.69,7.69,0,0,1,3.37.69,6.41,6.41,0,0,0,.91.27,3.08,3.08,0,0,1,.67.29c.77.48,1.51,1,2.28,1.47.41.25.85.45,1.27.67a.57.57,0,0,1,.19.1,21.59,21.59,0,0,0,2.47,1.64c.23.17.43.38.66.53.48.32,1,.61,1.45.9s.75.47,1.13.7.71.39,1.06.6a4.92,4.92,0,0,1,.58.44c.15.13.24.36.57.31a3.86,3.86,0,0,0,.12-.59c0-1.12,0-2.25,0-3.37a.94.94,0,0,0-.39-.78c-.36-.28-.63-.68-1.12-.77-.1,0-.17-.12-.26-.19l-.65-.44-1.24-.73L819,272.31a6.8,6.8,0,0,0-.83-.47,16.25,16.25,0,0,1-1.56-.91,12.92,12.92,0,0,0-1.83-1.17,1.44,1.44,0,0,1-1-1.56c.06-1.26,0-2.52,0-3.79A4.27,4.27,0,0,1,814,263.75Z" transform="translate(-185.19 -97.74)"/><path d="M825.93,233.53a2.2,2.2,0,0,0,.14-.51c0-.87,0-1.74,0-2.62a.71.71,0,0,0-.42-.63,3.94,3.94,0,0,0-1.32-.55,1.11,1.11,0,0,1-.43-.19,8.62,8.62,0,0,0-1.72-.92c-.61-.3-1.2-.65-1.83-.93-.16-.07-.29-.19-.45-.26l-1.65-.76a.51.51,0,0,1-.21-.15,4.7,4.7,0,0,0-1.28-.94c-.47-.31-.95-.62-1.39-1a1.37,1.37,0,0,0-1.67,0c-.43.3-.88.58-1.34.85a1.54,1.54,0,0,0-.73,1.47,10,10,0,0,1,.14,1.54c-.06,1.9-.15,3.8-.25,5.7a1.74,1.74,0,0,1-.55,1.19c-.42.4-.84.8-1.26,1.22-.27.27-.52.58-.79.86s-.31.23-.44.38-.18.25-.15.36.2.15.32.18a.86.86,0,0,0,.32,0,10.19,10.19,0,0,0,2.7-.19.5.5,0,0,1,.21,0c1.07.15,2.19-.11,3.2.43a.81.81,0,0,0,.31.06,1.21,1.21,0,0,1,.75.38,2.63,2.63,0,0,0,1.36.78,2.21,2.21,0,0,1,.64.26,14.56,14.56,0,0,0,1.38.8A7.64,7.64,0,0,1,821,241c.48.33,1,.62,1.49.92s1,.64,1.58,1c.26.16.52.31.76.48a3.88,3.88,0,0,0,1,.57c0-.2,0-.36.06-.51,0-1,.05-2,.07-2.94a4.53,4.53,0,0,0-.05-.74.67.67,0,0,0-.48-.57c-.57-.26-1.11-.56-1.65-.84l-.8-.42-.51-.28c-.22-.11-.44-.2-.66-.3l-1.65-.71s-.08-.08-.13-.1a5.76,5.76,0,0,0-.63-.37,7.38,7.38,0,0,1-1.38-.68,9.26,9.26,0,0,0-2-1.27.79.79,0,0,1-.48-.54,4.43,4.43,0,0,1-.17-.94c0-1.14,0-2.28,0-3.42,0-.13.07-.34.15-.36a.53.53,0,0,1,.42.11,1.71,1.71,0,0,0,.9.42c.59.18,1.18.39,1.76.59a.35.35,0,0,1,.17.12,3.82,3.82,0,0,0,1.48.83c.42.18.89.21,1.2.62.06.07.19.09.28.14.27.14.54.27.8.42a4.84,4.84,0,0,0,1.79.77,4.49,4.49,0,0,1,.85.29C825.43,233.32,825.65,233.42,825.93,233.53Z" transform="translate(-185.19 -97.74)"/><path d="M825.8,250.88h.05c0-.81,0-1.63,0-2.45a1.12,1.12,0,0,0-.71-1.14,12.55,12.55,0,0,1-1.37-.8c-.23-.13-.44-.29-.67-.43l-1.37-.8a12.74,12.74,0,0,0-2.61-1.61.76.76,0,0,1-.23-.13,14.93,14.93,0,0,0-2-1.25,4.51,4.51,0,0,0-2.06-.4c-.52,0-1,0-1.55.11s-.87.14-1.3.23a.58.58,0,0,0-.44.49c-.09.47-.22.94-.27,1.41a18.13,18.13,0,0,0,0,4.1,3.12,3.12,0,0,1,0,.43,9.89,9.89,0,0,0,.3,4,1.69,1.69,0,0,0,.49.8,5.81,5.81,0,0,1,.65.56,4.71,4.71,0,0,0,2.18,1.47,9.19,9.19,0,0,1,1.66.68c.59.33,1.21.59,1.79.93.82.46,1.61,1,2.42,1.45.3.18.59.38.9.56.57.35,1.17.66,1.71,1a2.13,2.13,0,0,0,2,.23.62.62,0,0,0,.32-.32,1.33,1.33,0,0,0,.09-.52c0-1.41,0-2.81,0-4.22a1.16,1.16,0,0,0-.23-.8.29.29,0,0,1,0-.43c.33-.23.32-.57.32-.91C825.8,252.41,825.8,251.65,825.8,250.88Z" transform="translate(-185.19 -97.74)"/><path d="M826.1,227.45c0-.38.09-.68.1-1l.12-7.9c0-.87,0-1.74,0-2.61a.81.81,0,0,0-.3-.71,1.62,1.62,0,0,1-.18-.19c-.45-.48-.88-1-1.34-1.43a.38.38,0,0,0-.65.22,2,2,0,0,0,0,.43c0,.49,0,1,0,1.49a49.6,49.6,0,0,0-.1,6.45c0,.19,0,.37-.18.46a.4.4,0,0,1-.52-.17,2,2,0,0,1-.31-.77c-.06-.64-.06-1.28-.1-1.92,0-.42-.06-.85-.1-1.27s-.09-.74-.11-1.11c0-1-.06-2-.1-2.94,0-.51-.22-.72-.74-.67a12,12,0,0,0-1.89.31,9.68,9.68,0,0,0-1.42.59c-.27.12-.54.26-.8.39l-.48.23c-.79.45-1.58.88-2.35,1.35a15,15,0,0,0-1.61,1.13,2.86,2.86,0,0,0-.53.73.62.62,0,0,0,.08.78,5.83,5.83,0,0,0,2.48,1.76,13.57,13.57,0,0,1,1.61.71,11.09,11.09,0,0,1,1.07.77,6.77,6.77,0,0,0,.66.33c.2.11.42.19.6.31a6,6,0,0,0,1.17.83,7.53,7.53,0,0,1,2,1.13,12.28,12.28,0,0,0,1.07.7c.72.42,1.46.81,2.19,1.21Z" transform="translate(-185.19 -97.74)"/><path d="M813.27,301.89h.07V301c0-1.14.09-2.27.13-3.41a2.45,2.45,0,0,0-.57-1.89c-.19-.19-.4-.35-.6-.52l-2.21-1.84a.78.78,0,0,0-.18-.11c-.34-.18-.59-.1-.7.28a3.39,3.39,0,0,0-.1.84c0,1.34.07,2.67.1,4a7.19,7.19,0,0,0,.53,2.86.67.67,0,0,1,0,.5,3,3,0,0,0-.3,1.45,6.8,6.8,0,0,1-.18,1.85,8.28,8.28,0,0,0-.13,1,7.66,7.66,0,0,0,.39,2.73.84.84,0,0,0,.38.49,10.22,10.22,0,0,1,1.85,1.42,7.21,7.21,0,0,0,.87.7c.47.29.85.08.88-.46,0-.22,0-.43,0-.64a15.27,15.27,0,0,0-.22-4.72,2.42,2.42,0,0,1,0-.54Z" transform="translate(-185.19 -97.74)"/><path d="M813.2,284.53h0c0-.5,0-1,0-1.5,0-.66.19-.78.77-.43a8.34,8.34,0,0,0,1.27.63c.4.15.55.12.66-.29a3.29,3.29,0,0,0,.07-.63c0-.55,0-1.11,0-1.65a1.14,1.14,0,0,0-.64-1.14,7.39,7.39,0,0,1-.81-.51,5.08,5.08,0,0,0-1.64-1.06,1.35,1.35,0,0,1-.26-.18c-.63-.42-1.26-.85-1.91-1.26-.32-.2-.58-.08-.69.29a1.5,1.5,0,0,0,0,.37c-.05,1.56-.11,3.12-.13,4.69s0,3,0,4.48a2.61,2.61,0,0,0,.09.84,2.45,2.45,0,0,1,0,1.37,2,2,0,0,0,.84,2.08,7.55,7.55,0,0,1,1.1.83c.49.37,1,.71,1.52,1.06a5.2,5.2,0,0,0,.47.35.51.51,0,0,0,.79-.39,1.23,1.23,0,0,0,0-.27c0-.87,0-1.74,0-2.61a1.14,1.14,0,0,0-.78-1.25,1.22,1.22,0,0,1-.84-1.32c0-.18,0-.35,0-.53C813.13,285.84,813.16,285.19,813.2,284.53Z" transform="translate(-185.19 -97.74)"/><path d="M809.52,322.6h0v-2.73c0-.12,0-.25,0-.37a.28.28,0,0,1,.43-.23,1.51,1.51,0,0,1,.34.24c.66.59,1.32,1.19,2,1.77.27.24.54.15.64-.21a2.66,2.66,0,0,0,.09-.63c0-1.09,0-2.17,0-3.26a5.39,5.39,0,0,0-.1-.89.83.83,0,0,0-.5-.66,3.29,3.29,0,0,1-1.09-.83c-.26-.24-.57-.41-.85-.63a12.61,12.61,0,0,1-1-.81c-.22-.22-.43-.39-.74-.31a.68.68,0,0,0-.46.71c0,.5-.09,1-.09,1.49q0,3.72,0,7.42c0,.45,0,.89,0,1.33,0,.66,0,1.32-.06,2a12.66,12.66,0,0,1-.21,3.13.69.69,0,0,0,.18.69,4,4,0,0,0,1.52,1.21,1,1,0,0,1,.23.13,7.65,7.65,0,0,0,1.69,1.18c.12.05.2.2.28.31a3.4,3.4,0,0,0,.23.3.35.35,0,0,0,.59,0,1.55,1.55,0,0,0,.34-1.29,4.65,4.65,0,0,1-.18-1.53c0-.5,0-1,0-1.49a1,1,0,0,0-.44-.86c-.36-.29-.8-.46-1.15-.73a2.92,2.92,0,0,0-1.18-.59.69.69,0,0,1-.59-.66,5.34,5.34,0,0,1-.05-.69Z" transform="translate(-185.19 -97.74)"/><path d="M824.48,328a6.11,6.11,0,0,0-.38-3.08,4,4,0,0,0-.75-1.58c-.35-.35-.72-.68-1.09-1a1.3,1.3,0,0,0-.41-.24c-.52-.17-.82.09-.79.64q.08,1.28.12,2.55c0,.21,0,.42,0,.64,0,1.19-.11,2.38-.12,3.57s0,2.17,0,3.25c0,.34-.07.68-.09,1-.08,1.21-.16,2.42-.21,3.62a1.55,1.55,0,0,0,.24.69c.25.5.7.87.93,1.41a1.48,1.48,0,0,0,.7.84c.9.42,1.64.24,1.6-.93,0-.78,0-1.56,0-2.34,0-1.49.18-3,0-4.48a3.83,3.83,0,0,1,0-.47c0-.34,0-.68,0-1s0-.57,0-.85.11-.63.13-.94S824.48,328.4,824.48,328Z" transform="translate(-185.19 -97.74)"/><path d="M824.78,312h0c0-1.14.08-2.28.09-3.42s0-2.49,0-3.73a1.48,1.48,0,0,0-.18-.82,4.08,4.08,0,0,0-2.05-1.63.67.67,0,0,0-.87.31,3.61,3.61,0,0,0-.37,2.43,10.48,10.48,0,0,1,.17,1.48c0,1.83,0,3.66-.1,5.49a15.55,15.55,0,0,0,0,3.2.5.5,0,0,1,0,.21,7.18,7.18,0,0,0,0,2.17,1.13,1.13,0,0,0,.23.57,4,4,0,0,0,.38.44,3.78,3.78,0,0,0,1.9,1.12c.44.14.64,0,.69-.46a2.28,2.28,0,0,0,0-.26c0-1.12,0-2.24.07-3.37S824.78,313.2,824.78,312Z" transform="translate(-185.19 -97.74)"/><path d="M822.69,289.42h0v3.47a1.47,1.47,0,0,1,0,.21c0,.31-.23.4-.48.22a.7.7,0,0,1-.16-.14.4.4,0,0,0-.53-.1.72.72,0,0,0-.24.43c-.08,1-.16,2-.21,3a1.4,1.4,0,0,0,.75,1.43c.33.17.64.37,1,.57.16.11.29.25.44.37a6.37,6.37,0,0,0,.84.73c.57.35,1,.13,1-.53V299c0-.8,0-1.6.05-2.4,0-1.25,0-2.5,0-3.74,0-2.15.06-4.31.1-6.46a1.15,1.15,0,0,0-.6-1.1l-.37-.22a4.2,4.2,0,0,1-.93-.7,2.24,2.24,0,0,0-.8-.51c-.35-.14-.57.05-.51.42a1,1,0,0,0,.2.53,1.85,1.85,0,0,1,.44,1.44C822.68,287.32,822.69,288.37,822.69,289.42Z" transform="translate(-185.19 -97.74)"/><path d="M836.36,244.71h0a1.49,1.49,0,0,0,0-.52.57.57,0,0,0-.33-.35.45.45,0,0,0-.4.16,1.76,1.76,0,0,0-.32.66c-.14.57-.22,1.16-.34,1.73a1.54,1.54,0,0,1-.23.58.56.56,0,0,0,0,.77.45.45,0,0,1,0,.59,2.13,2.13,0,0,0-.41,1.14.94.94,0,0,1-.13.4,3.79,3.79,0,0,0-.47,2.11,1.24,1.24,0,0,1-.26.84,2.51,2.51,0,0,0-.35.76c-.15.54-.28,1.09-.4,1.65a1.82,1.82,0,0,0,0,.52c0,.29,0,.57.06.85a2.2,2.2,0,0,0,.1.58,1.52,1.52,0,0,1-.12,1.42.77.77,0,0,0,.65,1.11.47.47,0,0,0,.51-.31,2.89,2.89,0,0,0,.32-1.55,2.8,2.8,0,0,1,.13-1.15c.13-.55.25-1.11.34-1.67s.11-.91.14-1.38a4.41,4.41,0,0,0,0-.89,1.7,1.7,0,0,1,.18-1.14,2.39,2.39,0,0,0,.34-1.37,1.09,1.09,0,0,1,.28-.73,2.52,2.52,0,0,0,.67-1.91,1.65,1.65,0,0,1,0-.63,3.21,3.21,0,0,0,.08-1.84A2,2,0,0,1,836.36,244.71Z" transform="translate(-185.19 -97.74)"/><path d="M837.38,229.83c.21-.64-.11-1.16-.22-1.71a.39.39,0,0,0-.3-.23.53.53,0,0,0-.35.26,4.65,4.65,0,0,0-.25,1.09c-.07.94-.09,1.88-.15,2.82a3.8,3.8,0,0,1-.17.88,1.61,1.61,0,0,0,.07,1.29,1.43,1.43,0,0,1,.07.66c0,.33,0,.67,0,1a5.9,5.9,0,0,1-.09.72c0,.21-.13.41-.15.62a.49.49,0,0,0,.49.57c.52.07.81-.17.86-.77s.06-1.31.11-2a3.24,3.24,0,0,1,.21-.92,1.23,1.23,0,0,0,0-1.12,1.57,1.57,0,0,1-.1-1.24,3.65,3.65,0,0,0,.08-1C837.46,230.45,837.41,230.12,837.38,229.83Z" transform="translate(-185.19 -97.74)"/><path d="M781.33,330.07c0-.89-.42-1.22-1.13-.91a1,1,0,0,0-.23.13,2.48,2.48,0,0,0-.85,1.14c-.12.46-.26.92-.39,1.38a1.6,1.6,0,0,0,1,2,.93.93,0,0,0,1.44-.95,10,10,0,0,1,0-2C781.26,330.58,781.3,330.3,781.33,330.07Z" transform="translate(-185.19 -97.74)"/><path d="M780,319.29h.05c-.05-.34-.09-.67-.16-1a.59.59,0,0,0-.5-.54.7.7,0,0,0-.66.46c0,.11,0,.24-.09.36a3.86,3.86,0,0,1-.2.66,1.55,1.55,0,0,0,0,1.33,2.18,2.18,0,0,1,.1.52c.05.4.06.81.13,1.21a2.22,2.22,0,0,1-.22,1.74.64.64,0,0,0,.12.87.65.65,0,0,0,.85-.22,1.33,1.33,0,0,0,.26-.5,3.23,3.23,0,0,0,.13-.69C779.89,322.09,780,320.69,780,319.29Z" transform="translate(-185.19 -97.74)"/><path d="M787.63,337.38a.83.83,0,0,0,.92-1.06,5.44,5.44,0,0,0-.43-1.07c-.1-.23-.24-.43-.36-.65s-.32-.63-.52-.93a.88.88,0,0,0-1.11-.36.8.8,0,0,0-.39.4,1.09,1.09,0,0,0,.14,1,1.36,1.36,0,0,1,.25.62,3.54,3.54,0,0,0,.56,1.54A1,1,0,0,0,787.63,337.38Z" transform="translate(-185.19 -97.74)"/><path d="M791.47,344.43c.76,0,1.1-.33.92-.82a1,1,0,0,0-.4-.47,3.81,3.81,0,0,1-1-1,4.29,4.29,0,0,0-1.42-1.19.82.82,0,0,0-.59-.08c-.21.08-.24.33-.2.56a2.09,2.09,0,0,0,.62,1.48,2.37,2.37,0,0,1,.31.43A3,3,0,0,0,791.47,344.43Z" transform="translate(-185.19 -97.74)"/><path d="M831.5,344.66c0,.18,0,.35,0,.53a.54.54,0,0,0,.49.48,1.53,1.53,0,0,0,1.46-.79,7.39,7.39,0,0,0,.28-1.4.65.65,0,0,0-.33-.73.85.85,0,0,0-1,.07A2,2,0,0,0,831.5,344.66Z" transform="translate(-185.19 -97.74)"/><path d="M794.25,280a3.9,3.9,0,0,0,.52,1.72,3.65,3.65,0,0,0,.61.93.59.59,0,0,0,1-.24,1.53,1.53,0,0,0,0-.52,8.7,8.7,0,0,0-1-2,1.21,1.21,0,0,0-.44-.46.41.41,0,0,0-.68.2A1.49,1.49,0,0,0,794.25,280Z" transform="translate(-185.19 -97.74)"/><path d="M792.42,342.19c-.14.57.21,1,.68,1.33a.81.81,0,0,0,.95,0,.86.86,0,0,0,.35-.94c-.1-.37-.19-.75-.28-1.12a.77.77,0,0,0-.53-.62.81.81,0,0,0-.83.2A1.33,1.33,0,0,0,792.42,342.19Z" transform="translate(-185.19 -97.74)"/><path d="M772.15,321.77c0,.41.05.6.27.69a.68.68,0,0,0,.76,0,1.86,1.86,0,0,0,.68-1.22c0-.42-.21-.61-.64-.59A1.13,1.13,0,0,0,772.15,321.77Z" transform="translate(-185.19 -97.74)"/><path d="M774.72,317.85c0-.61-.29-1-.79-.89a1.11,1.11,0,0,0-.71,1.52.81.81,0,0,0,.42.28A.85.85,0,0,0,774.72,317.85Z" transform="translate(-185.19 -97.74)"/><path d="M832.35,216.66a3,3,0,0,0,.39-.24c.19-.18.36-.39.55-.57a.85.85,0,0,0,.24-.78.43.43,0,0,0-.7-.26,9.56,9.56,0,0,0-.89.91.91.91,0,0,0-.17.43C831.73,216.48,831.9,216.65,832.35,216.66Z" transform="translate(-185.19 -97.74)"/><path d="M835.74,219.38a3.81,3.81,0,0,0-.06-.57.34.34,0,0,0-.57-.21,1.48,1.48,0,0,0-.39,1.45.54.54,0,0,0,.57.3.44.44,0,0,0,.4-.43C835.72,219.75,835.72,219.57,835.74,219.38Z" transform="translate(-185.19 -97.74)"/><path d="M836.67,238.67c-.13-.1-.22-.21-.27-.19a.36.36,0,0,0-.22.2s.12.2.17.19S836.53,238.76,836.67,238.67Z" transform="translate(-185.19 -97.74)"/><path class="cls-3" d="M826,359l-.36-.1c-.37-.06-.74-.08-1.11-.16a7.93,7.93,0,0,1-.89-.32,4.15,4.15,0,0,0-.65-.22,2.66,2.66,0,0,1-1.36-.55c-.58-.49-1.25-.86-1.84-1.35a7.22,7.22,0,0,1-1.47-1.45c-.34-.54-.83-.91-1.19-1.4a5.14,5.14,0,0,1-.94-1.66,10.23,10.23,0,0,0-.56-1.38,6.83,6.83,0,0,1-.29-.75c-.2-.68-.37-1.36-.56-2.05-.07-.23-.2-.45-.28-.68a3.91,3.91,0,0,1-.33-1,2.23,2.23,0,0,0-1.09-1.79c-.37-.27-.7-.59-1.06-.88l-.76-.56a2.08,2.08,0,0,1-.34-.32c-.3-.43-.6-.84-.86-1.29a1.17,1.17,0,0,0-1.07-.66,5.83,5.83,0,0,1-.59,0,2,2,0,0,1-1.11-.44c-.34-.28-.76-.46-1.12-.71a1.55,1.55,0,0,1-.53-.52,4.69,4.69,0,0,0-1.26-1.29c-.42-.37-.87-.73-1.32-1.06s-1-.63-1.45-1a3.23,3.23,0,0,0-1.35-.6.47.47,0,0,1-.29-.21c-.3-.44-.57-.9-.86-1.35a2.76,2.76,0,0,0-.38-.56.61.61,0,0,0-.47-.14c-.2,0-.24.24-.25.42a1.13,1.13,0,0,0,0,.32,8.6,8.6,0,0,0,.58,1.93,11.06,11.06,0,0,1,.61,1.36,1.43,1.43,0,0,1,.09.41,1.89,1.89,0,0,0,.42,1.18,1.36,1.36,0,0,1,.2.7,2,2,0,0,0,.35,1.11,1.33,1.33,0,0,1,.19.6,1.72,1.72,0,0,0,.38,1,.68.68,0,0,1,.09.75c-.13.31-.46.38-.63.1a3.08,3.08,0,0,1-.73-1.45,1.19,1.19,0,0,0-.4-.66,2.47,2.47,0,0,1-.69-1,.71.71,0,0,0-.16-.28,2.27,2.27,0,0,1-.47-1,6.87,6.87,0,0,0-.92-2.07.31.31,0,0,1,0-.1l-.69-1.77a.78.78,0,0,0-.15-.33,2.45,2.45,0,0,1-.75-1.39,5.54,5.54,0,0,0-1.89-2.71c-.42-.36-.81-.75-1.21-1.12a.54.54,0,0,0-.21-.16,2.6,2.6,0,0,1-1-.63c-.51-.36-1-.71-1.56-1.08s-.74-.62-1.12-.91-.55-.38-.84-.56a2.53,2.53,0,0,1-1-1.17,3.51,3.51,0,0,0-.7-1.05,1.75,1.75,0,0,0-.83-.33,5.24,5.24,0,0,1-1.89-.94,1.24,1.24,0,0,1-.51-.85,5.13,5.13,0,0,0-.38-1c-.07-.19-.16-.36-.24-.54s0-.1,0-.15c-.33-.66-.66-1.32-1-2a5.93,5.93,0,0,1-.72-1.76,9.67,9.67,0,0,0-.61-1.76,2.78,2.78,0,0,1-.16-.4,17.6,17.6,0,0,1-.77-3.51c0-.5.05-1,0-1.5a3,3,0,0,1,.61-2,2.28,2.28,0,0,1,2.07-.83,4.14,4.14,0,0,1,1.71.7,3.14,3.14,0,0,0,.86.52,15.29,15.29,0,0,1,2,1.36,1.64,1.64,0,0,1,.33.26c.67.69,1.37,1.35,2,2.09a13.22,13.22,0,0,1,1.66,2.2,4.18,4.18,0,0,0,.58.75c.54.67,1,1.43,1.55,2.07a2.5,2.5,0,0,1,.79,1.3,1.88,1.88,0,0,0,.33.6c.25.45.54.88.76,1.34s.36,1,.61,1.52a7.26,7.26,0,0,0,.78,1.2,5,5,0,0,1,1,1.62,5,5,0,0,0,.72,1.1,1.3,1.3,0,0,1,.24.68,2.38,2.38,0,0,0,1.23,2.17,3.7,3.7,0,0,1,1,1.25c.13.24.29.42.58.31a1.79,1.79,0,0,1,1.77.46,16.74,16.74,0,0,0,2,1.43,15.85,15.85,0,0,1,1.52,1.14c.41.27.83.54,1.24.83l1.28.94c.17.13.36.23.54.35a7.78,7.78,0,0,1,.7.47c.74.58,1.46,1.19,2.2,1.77.29.23.62.41.91.64s.41.45.66.6a3.07,3.07,0,0,1,1.42,1.87c.06.22.15.45.44.45a.55.55,0,0,0,.51-.41,1.51,1.51,0,0,0,.11-.62,8.37,8.37,0,0,1,0-2.18,8.64,8.64,0,0,0,0-1.44c0-1.44,0-2.88,0-4.32,0-2-.06-4.06-.07-6.09,0-.4.12-.8.16-1.2.09-.78.18-1.56.23-2.34.06-1,0-1.92.14-2.88a5.08,5.08,0,0,0-.05-2.51,3.26,3.26,0,0,1,0-1.17c.06-2.67.15-5.34.18-8,0-1.38-.06-2.77-.08-4.16,0-.55,0-1.1.06-1.65l.21-4.42a2,2,0,0,1,.23-.87,1.56,1.56,0,0,0,.19-.76c0-.85-.15-1.7-.23-2.55,0-.26-.07-.53-.07-.79,0-2.16,0-4.31,0-6.47,0-1.22.12-2.45.18-3.67a1.12,1.12,0,0,1,0-.32c.08-.3.24-.35.51-.22a8.46,8.46,0,0,1,1.62,1.11,2.19,2.19,0,0,0,.65.32,1,1,0,0,1,.78.91c0,.2,0,.39,0,.59,0,.92,0,1.85.11,2.77a4.81,4.81,0,0,1-.09,1.85,2.59,2.59,0,0,0-.09.74c-.08,2.74-.16,5.48-.21,8.22,0,1.3,0,2.6,0,3.9,0,1.78-.08,3.56-.12,5.34-.07,3.08-.12,6.16-.22,9.24a20.49,20.49,0,0,1-.32,3.66,4.25,4.25,0,0,0-.07.8c0,.75-.06,1.5-.08,2.24-.05,2.42-.08,4.84-.13,7.26,0,1.75-.08,3.49-.11,5.24s0,3.38,0,5.07c0,.57,0,1.14-.05,1.71a.61.61,0,0,0,.24.61c.34.23.68.45,1,.69a1.11,1.11,0,0,1,.39.35c.26.57.81.83,1.24,1.23,0,0,0,0,0,0,.47.66,1.19,1.07,1.69,1.73a17.07,17.07,0,0,0,1.78,1.83c.32.31.69.55,1,.84a3.2,3.2,0,0,1,.43.47c.37.49.73,1,1.09,1.49a.38.38,0,0,1,.12.17,5.3,5.3,0,0,0,1,1.91,2.32,2.32,0,0,1,.26,1.4c-.05.56-.11,1.13-.12,1.7a2.63,2.63,0,0,1-.86,1.88,6.65,6.65,0,0,0-.58.61.46.46,0,0,0,0,.38,5.94,5.94,0,0,0,.35.82,5.86,5.86,0,0,0,.41.74,1,1,0,0,1,.07,1,.87.87,0,0,1-1.09.27,2.75,2.75,0,0,1-1.07-.87,1.13,1.13,0,0,1-.12-1.38.68.68,0,0,0,.07-.2S826,359,826,359Zm-45.52-49h0a8,8,0,0,0,0,.85,1.77,1.77,0,0,0,.14.66,9.43,9.43,0,0,0,.61.94,3.91,3.91,0,0,0,.6.88,11.67,11.67,0,0,1,1.54,2,6.93,6.93,0,0,0,1.33,1.43c.26.21.56.38.81.61l1.94,1.82a6.11,6.11,0,0,0,1.82,1.45,1.11,1.11,0,0,1,.24.2,5.66,5.66,0,0,0,.54.43c.56.36,1.14.71,1.72,1a.76.76,0,0,0,.34,0c0-.13,0-.28,0-.38-.31-.56-.64-1.1-1-1.65-.22-.38-.45-.76-.66-1.15a10.89,10.89,0,0,0-.62-1.23,4.14,4.14,0,0,1-1-2.08.62.62,0,0,0-.07-.19c-.32-.51-.63-1-1-1.53-.18-.26-.41-.48-.61-.73-.56-.69-1.1-1.39-1.68-2.06a17.15,17.15,0,0,0-1.26-1.3c-.37-.34-.77-.66-1.17-1-.58-.47-1.35-.61-1.92-1.12-.28-.26-.58-.11-.62.3C780.52,308.73,780.5,309.33,780.45,309.94ZM824.55,356c.06,0,.24-.07.31-.18a.45.45,0,0,0,0-.39,14.16,14.16,0,0,0-1.13-1.72,9,9,0,0,0-1.71-1.93c-.14-.09-.21-.28-.33-.41a3.87,3.87,0,0,0-.41-.4c-.14-.13-.32-.23-.46-.36l-1.5-1.43a4.84,4.84,0,0,0-.63-.57c-.33-.23-.5-.15-.64.22a1.07,1.07,0,0,0,.1,1,3.4,3.4,0,0,1,.3.79,15.7,15.7,0,0,0,.65,1.73,16.15,16.15,0,0,0,.93,1.45,5.63,5.63,0,0,0,2.16,1.65,3.75,3.75,0,0,0,1.09.4A11.21,11.21,0,0,0,824.55,356Z" transform="translate(-185.19 -97.74)"/><path class="cls-3" d="M814,263.75a4.27,4.27,0,0,0-.12.66c0,1.27,0,2.53,0,3.79a1.44,1.44,0,0,0,1,1.56,12.92,12.92,0,0,1,1.83,1.17,16.25,16.25,0,0,0,1.56.91,6.8,6.8,0,0,1,.83.47l2.68,1.62,1.24.73.65.44c.09.07.16.17.26.19.49.09.76.49,1.12.77a.94.94,0,0,1,.39.78c0,1.12,0,2.25,0,3.37a3.86,3.86,0,0,1-.12.59c-.33.05-.42-.18-.57-.31a4.92,4.92,0,0,0-.58-.44c-.35-.21-.71-.39-1.06-.6s-.76-.46-1.13-.7-1-.58-1.45-.9c-.23-.15-.43-.36-.66-.53a21.59,21.59,0,0,1-2.47-1.64.57.57,0,0,0-.19-.1c-.42-.22-.86-.42-1.27-.67-.77-.47-1.51-1-2.28-1.47a3.08,3.08,0,0,0-.67-.29,6.41,6.41,0,0,1-.91-.27,7.69,7.69,0,0,0-3.37-.69c-.2,0-.4,0-.66-.05a2.86,2.86,0,0,1,.63-1.05,6.31,6.31,0,0,0,.44-.58c.27-.33.55-.65.81-1a4.39,4.39,0,0,0,.41-.73,7.83,7.83,0,0,0,.33-3.63c0-.3,0-.6,0-.9v-.63c0-.52,0-1,0-1.55s0-1.1,0-1.65a2,2,0,0,1,.89-1.58,6.18,6.18,0,0,0,1-.64.62.62,0,0,1,.77-.1,16.07,16.07,0,0,1,2.73,1.64c.25.2.48.42.72.64a.24.24,0,0,1,.06.08c.24.51.48,1,.69,1.54.13.33.26.49.61.45a1.85,1.85,0,0,0,.79-.26,1.73,1.73,0,0,1,1.82,0c.34.18.62.47,1,.66s.94.5,1.41.74c.09.05.23.05.29.12a12.68,12.68,0,0,0,1.88,1.19.89.89,0,0,1,.38.77c0,.43,0,.86,0,1.28,0,.86,0,1.71-.07,2.56,0,.16,0,.32-.07.53a3,3,0,0,1-.3-.14,22.88,22.88,0,0,0-2.3-1.33q-1.17-.69-2.31-1.44a1.86,1.86,0,0,0-.93-.35,2.61,2.61,0,0,1-1.37-.67,5.08,5.08,0,0,0-1.28-.63,9.32,9.32,0,0,1-1.34-.75c-.25-.14-.5-.26-.74-.41S814.33,264,814,263.75Z" transform="translate(-185.19 -97.74)"/><path class="cls-3" d="M825.93,233.53c-.28-.11-.5-.21-.73-.29a4.49,4.49,0,0,0-.85-.29,4.84,4.84,0,0,1-1.79-.77c-.26-.15-.53-.28-.8-.42-.09,0-.22-.07-.28-.14-.31-.41-.78-.44-1.2-.62a3.82,3.82,0,0,1-1.48-.83.35.35,0,0,0-.17-.12c-.58-.2-1.17-.41-1.76-.59a1.71,1.71,0,0,1-.9-.42.53.53,0,0,0-.42-.11c-.08,0-.15.23-.15.36,0,1.14,0,2.28,0,3.42a4.43,4.43,0,0,0,.17.94.79.79,0,0,0,.48.54,9.26,9.26,0,0,1,2,1.27,7.38,7.38,0,0,0,1.38.68,5.76,5.76,0,0,1,.63.37c.05,0,.08.07.13.1l1.65.71c.22.1.44.19.66.3l.51.28.8.42c.54.28,1.08.58,1.65.84a.67.67,0,0,1,.48.57,4.53,4.53,0,0,1,.05.74c0,1-.05,2-.07,2.94,0,.15,0,.31-.06.51a3.88,3.88,0,0,1-1-.57c-.24-.17-.5-.32-.76-.48-.53-.32-1.06-.63-1.58-1s-1-.59-1.49-.92a7.64,7.64,0,0,0-1.49-.67,14.56,14.56,0,0,1-1.38-.8,2.21,2.21,0,0,0-.64-.26,2.63,2.63,0,0,1-1.36-.78,1.21,1.21,0,0,0-.75-.38.81.81,0,0,1-.31-.06c-1-.54-2.13-.28-3.2-.43a.5.5,0,0,0-.21,0,10.19,10.19,0,0,1-2.7.19.86.86,0,0,1-.32,0c-.12,0-.31-.1-.32-.18s.07-.27.15-.36.31-.24.44-.38.52-.59.79-.86c.42-.42.84-.82,1.26-1.22a1.74,1.74,0,0,0,.55-1.19c.1-1.9.19-3.8.25-5.7a10,10,0,0,0-.14-1.54,1.54,1.54,0,0,1,.73-1.47c.46-.27.91-.55,1.34-.85a1.37,1.37,0,0,1,1.67,0c.44.35.92.66,1.39,1a4.7,4.7,0,0,1,1.28.94.51.51,0,0,0,.21.15l1.65.76c.16.07.29.19.45.26.63.28,1.22.63,1.83.93a8.62,8.62,0,0,1,1.72.92,1.11,1.11,0,0,0,.43.19,3.94,3.94,0,0,1,1.32.55.71.71,0,0,1,.42.63c0,.88,0,1.75,0,2.62A2.2,2.2,0,0,1,825.93,233.53Z" transform="translate(-185.19 -97.74)"/><path class="cls-3" d="M825.8,250.88c0,.77,0,1.53,0,2.3,0,.34,0,.68-.32.91a.29.29,0,0,0,0,.43,1.16,1.16,0,0,1,.23.8c0,1.41,0,2.81,0,4.22a1.33,1.33,0,0,1-.09.52.62.62,0,0,1-.32.32,2.13,2.13,0,0,1-2-.23c-.54-.39-1.14-.7-1.71-1-.31-.18-.6-.38-.9-.56-.81-.49-1.6-1-2.42-1.45-.58-.34-1.2-.6-1.79-.93a9.19,9.19,0,0,0-1.66-.68,4.71,4.71,0,0,1-2.18-1.47,5.81,5.81,0,0,0-.65-.56,1.69,1.69,0,0,1-.49-.8,9.89,9.89,0,0,1-.3-4,3.12,3.12,0,0,0,0-.43,18.13,18.13,0,0,1,0-4.1c0-.47.18-.94.27-1.41a.58.58,0,0,1,.44-.49c.43-.09.87-.18,1.3-.23s1-.09,1.55-.11a4.51,4.51,0,0,1,2.06.4,14.93,14.93,0,0,1,2,1.25.76.76,0,0,0,.23.13,12.74,12.74,0,0,1,2.61,1.61l1.37.8c.23.14.44.3.67.43a12.55,12.55,0,0,0,1.37.8,1.12,1.12,0,0,1,.71,1.14c0,.82,0,1.64,0,2.45Zm-9.87-5.77c-.3,0-.55,0-.8.06a1.21,1.21,0,0,0-1,1.2c0,1.22,0,2.45,0,3.67a1.38,1.38,0,0,0,.68,1.25,5.81,5.81,0,0,0,1.53.83,11.82,11.82,0,0,1,1.23.51,3.48,3.48,0,0,1,.36.22c.41.27.8.59,1.23.82.69.37,1.4.69,2.11,1a3.74,3.74,0,0,0,.86.27.41.41,0,0,0,.55-.36,3.66,3.66,0,0,0,0-.74c0-.33-.1-.67-.09-1,0-1,.09-2,.15-3a.56.56,0,0,0-.24-.55l-2.25-1.68a.9.9,0,0,0-.24-.12,5.17,5.17,0,0,1-1.88-1.06c-.12-.09-.27-.16-.4-.24l-.45-.29c-.36-.24-.72-.5-1.09-.74A.56.56,0,0,0,815.93,245.11Z" transform="translate(-185.19 -97.74)"/><path class="cls-3" d="M826.1,227.45l-.75-.35c-.73-.4-1.47-.79-2.19-1.21a12.28,12.28,0,0,1-1.07-.7,7.53,7.53,0,0,0-2-1.13,6,6,0,0,1-1.17-.83c-.18-.12-.4-.2-.6-.31a6.77,6.77,0,0,1-.66-.33,11.09,11.09,0,0,0-1.07-.77,13.57,13.57,0,0,0-1.61-.71,5.83,5.83,0,0,1-2.48-1.76.62.62,0,0,1-.08-.78,2.86,2.86,0,0,1,.53-.73,15,15,0,0,1,1.61-1.13c.77-.47,1.56-.9,2.35-1.35l.48-.23c.26-.13.53-.27.8-.39a9.68,9.68,0,0,1,1.42-.59,12,12,0,0,1,1.89-.31c.52-.05.72.16.74.67,0,1,.06,2,.1,2.94,0,.37.08.74.11,1.11s.08.85.1,1.27c0,.64,0,1.28.1,1.92a2,2,0,0,0,.31.77.4.4,0,0,0,.52.17c.2-.09.19-.27.18-.46a49.6,49.6,0,0,1,.1-6.45c0-.5,0-1,0-1.49a2,2,0,0,1,0-.43.38.38,0,0,1,.65-.22c.46.46.89,1,1.34,1.43a1.62,1.62,0,0,0,.18.19.81.81,0,0,1,.3.71c0,.87,0,1.74,0,2.61l-.12,7.9C826.19,226.77,826.14,227.07,826.1,227.45Zm-6.63-7.27a2.32,2.32,0,0,0,.07-.38c0-.47,0-1,0-1.43,0-.12,0-.25,0-.37,0-.32-.14-.39-.45-.38a2.85,2.85,0,0,0-1.94,1c-.23.24-.18.45.11.58.13.06.27.09.4.15.54.29,1.08.58,1.63.86C819.33,220.2,819.37,220.18,819.47,220.18Z" transform="translate(-185.19 -97.74)"/><path class="cls-3" d="M813.27,301.89V305a2.42,2.42,0,0,0,0,.54,15.27,15.27,0,0,1,.22,4.72c0,.21,0,.42,0,.64,0,.54-.41.75-.88.46a7.21,7.21,0,0,1-.87-.7,10.22,10.22,0,0,0-1.85-1.42.84.84,0,0,1-.38-.49,7.66,7.66,0,0,1-.39-2.73,8.28,8.28,0,0,1,.13-1,6.8,6.8,0,0,0,.18-1.85,3,3,0,0,1,.3-1.45.67.67,0,0,0,0-.5,7.19,7.19,0,0,1-.53-2.86c0-1.34-.07-2.67-.1-4a3.39,3.39,0,0,1,.1-.84c.11-.38.36-.46.7-.28a.78.78,0,0,1,.18.11l2.21,1.84c.2.17.41.33.6.52a2.45,2.45,0,0,1,.57,1.89c0,1.14-.09,2.27-.13,3.41v.85Z" transform="translate(-185.19 -97.74)"/><path class="cls-3" d="M813.2,284.53c0,.66-.07,1.31-.11,2,0,.18,0,.35,0,.53a1.22,1.22,0,0,0,.84,1.32,1.14,1.14,0,0,1,.78,1.25c0,.87,0,1.74,0,2.61a1.23,1.23,0,0,1,0,.27.51.51,0,0,1-.79.39,5.2,5.2,0,0,1-.47-.35c-.5-.35-1-.69-1.52-1.06a7.55,7.55,0,0,0-1.1-.83,2,2,0,0,1-.84-2.08,2.45,2.45,0,0,0,0-1.37,2.61,2.61,0,0,1-.09-.84c0-1.49,0-3,0-4.48s.08-3.13.13-4.69a1.5,1.5,0,0,1,0-.37c.11-.37.37-.49.69-.29.65.41,1.28.84,1.91,1.26a1.35,1.35,0,0,0,.26.18,5.08,5.08,0,0,1,1.64,1.06,7.39,7.39,0,0,0,.81.51,1.14,1.14,0,0,1,.64,1.14c0,.54,0,1.1,0,1.65a3.29,3.29,0,0,1-.07.63c-.11.41-.26.44-.66.29a8.34,8.34,0,0,1-1.27-.63c-.58-.35-.76-.23-.77.43,0,.5,0,1,0,1.5Z" transform="translate(-185.19 -97.74)"/><path class="cls-3" d="M809.52,322.6v2.45a5.34,5.34,0,0,0,.05.69.69.69,0,0,0,.59.66,2.92,2.92,0,0,1,1.18.59c.35.27.79.44,1.15.73a1,1,0,0,1,.44.86c0,.49,0,1,0,1.49a4.65,4.65,0,0,0,.18,1.53,1.55,1.55,0,0,1-.34,1.29.35.35,0,0,1-.59,0,3.4,3.4,0,0,1-.23-.3c-.08-.11-.16-.26-.28-.31a7.65,7.65,0,0,1-1.69-1.18,1,1,0,0,0-.23-.13,4,4,0,0,1-1.52-1.21.69.69,0,0,1-.18-.69,12.66,12.66,0,0,0,.21-3.13c0-.66,0-1.32.06-2,0-.44,0-.88,0-1.33q0-3.71,0-7.42c0-.49.05-1,.09-1.49a.68.68,0,0,1,.46-.71c.31-.08.52.09.74.31a12.61,12.61,0,0,0,1,.81c.28.22.59.39.85.63a3.29,3.29,0,0,0,1.09.83.83.83,0,0,1,.5.66,5.39,5.39,0,0,1,.1.89c0,1.09,0,2.17,0,3.26a2.66,2.66,0,0,1-.09.63c-.1.36-.37.45-.64.21-.67-.58-1.33-1.18-2-1.77a1.51,1.51,0,0,0-.34-.24.28.28,0,0,0-.43.23c0,.12,0,.25,0,.37v2.73Z" transform="translate(-185.19 -97.74)"/><path class="cls-3" d="M824.48,328c0,.43,0,.86,0,1.29s-.1.63-.13.94,0,.57,0,.85,0,.67,0,1a3.83,3.83,0,0,0,0,.47c.14,1.5,0,3,0,4.48,0,.78,0,1.56,0,2.34,0,1.17-.7,1.35-1.6.93a1.48,1.48,0,0,1-.7-.84c-.23-.54-.68-.91-.93-1.41a1.55,1.55,0,0,1-.24-.69c.05-1.2.13-2.41.21-3.62,0-.33.09-.67.09-1,0-1.08-.06-2.17,0-3.25s.08-2.38.12-3.57c0-.22,0-.43,0-.64q0-1.28-.12-2.55c0-.55.27-.81.79-.64a1.3,1.3,0,0,1,.41.24c.37.33.74.66,1.09,1a4,4,0,0,1,.75,1.58A6.11,6.11,0,0,1,824.48,328Z" transform="translate(-185.19 -97.74)"/><path class="cls-3" d="M824.78,312c0,1.24,0,2.49,0,3.73s0,2.25-.07,3.37a2.28,2.28,0,0,1,0,.26c-.05.45-.25.6-.69.46a3.78,3.78,0,0,1-1.9-1.12,4,4,0,0,1-.38-.44,1.13,1.13,0,0,1-.23-.57,7.18,7.18,0,0,1,0-2.17.5.5,0,0,0,0-.21,15.55,15.55,0,0,1,0-3.2c.1-1.83.13-3.66.1-5.49a10.48,10.48,0,0,0-.17-1.48,3.61,3.61,0,0,1,.37-2.43.67.67,0,0,1,.87-.31,4.08,4.08,0,0,1,2.05,1.63,1.48,1.48,0,0,1,.18.82c0,1.24,0,2.49,0,3.73s-.06,2.28-.09,3.42Z" transform="translate(-185.19 -97.74)"/><path class="cls-3" d="M822.69,289.42c0-1.05,0-2.1,0-3.15a1.85,1.85,0,0,0-.44-1.44,1,1,0,0,1-.2-.53c-.06-.37.16-.56.51-.42a2.24,2.24,0,0,1,.8.51,4.2,4.2,0,0,0,.93.7l.37.22a1.15,1.15,0,0,1,.6,1.1c0,2.15-.07,4.31-.1,6.46,0,1.24,0,2.49,0,3.74,0,.8,0,1.6-.05,2.4v.1c0,.66-.44.88-1,.53a6.37,6.37,0,0,1-.84-.73c-.15-.12-.28-.26-.44-.37-.32-.2-.63-.4-1-.57a1.4,1.4,0,0,1-.75-1.43c.05-1,.13-2,.21-3a.72.72,0,0,1,.24-.43.4.4,0,0,1,.53.1.7.7,0,0,0,.16.14c.25.18.43.09.48-.22a1.47,1.47,0,0,0,0-.21v-3.47Z" transform="translate(-185.19 -97.74)"/><path class="cls-3" d="M836.36,244.71a2,2,0,0,0,0,.42,3.21,3.21,0,0,1-.08,1.84,1.65,1.65,0,0,0,0,.63,2.52,2.52,0,0,1-.67,1.91,1.09,1.09,0,0,0-.28.73,2.39,2.39,0,0,1-.34,1.37,1.7,1.7,0,0,0-.18,1.14,4.41,4.41,0,0,1,0,.89c0,.47-.07.93-.14,1.38s-.21,1.12-.34,1.67a2.8,2.8,0,0,0-.13,1.15,2.89,2.89,0,0,1-.32,1.55.47.47,0,0,1-.51.31.77.77,0,0,1-.65-1.11,1.52,1.52,0,0,0,.12-1.42,2.2,2.2,0,0,1-.1-.58c0-.28-.05-.56-.06-.85a1.82,1.82,0,0,1,0-.52c.12-.56.25-1.11.4-1.65a2.51,2.51,0,0,1,.35-.76,1.24,1.24,0,0,0,.26-.84,3.79,3.79,0,0,1,.47-2.11.94.94,0,0,0,.13-.4,2.13,2.13,0,0,1,.41-1.14.45.45,0,0,0,0-.59.56.56,0,0,1,0-.77,1.54,1.54,0,0,0,.23-.58c.12-.57.2-1.16.34-1.73a1.76,1.76,0,0,1,.32-.66.45.45,0,0,1,.4-.16.57.57,0,0,1,.33.35,1.49,1.49,0,0,1,0,.52Z" transform="translate(-185.19 -97.74)"/><path class="cls-3" d="M837.38,229.83c0,.29.08.62.09,1a3.65,3.65,0,0,1-.08,1,1.57,1.57,0,0,0,.1,1.24,1.23,1.23,0,0,1,0,1.12,3.24,3.24,0,0,0-.21.92c0,.66,0,1.32-.11,2s-.34.84-.86.77a.49.49,0,0,1-.49-.57c0-.21.11-.41.15-.62a5.9,5.9,0,0,0,.09-.72c0-.33,0-.67,0-1a1.43,1.43,0,0,0-.07-.66,1.61,1.61,0,0,1-.07-1.29,3.8,3.8,0,0,0,.17-.88c.06-.94.08-1.88.15-2.82a4.65,4.65,0,0,1,.25-1.09.53.53,0,0,1,.35-.26.39.39,0,0,1,.3.23C837.27,228.67,837.59,229.19,837.38,229.83Z" transform="translate(-185.19 -97.74)"/><path class="cls-3" d="M781.33,330.07c0,.23-.07.51-.1.79a10,10,0,0,0,0,2,.93.93,0,0,1-1.44.95,1.6,1.6,0,0,1-1-2c.13-.46.27-.92.39-1.38a2.48,2.48,0,0,1,.85-1.14,1,1,0,0,1,.23-.13C780.91,328.85,781.35,329.18,781.33,330.07Z" transform="translate(-185.19 -97.74)"/><path class="cls-3" d="M780,319.29c-.07,1.4-.14,2.8-.22,4.2a3.23,3.23,0,0,1-.13.69,1.33,1.33,0,0,1-.26.5.65.65,0,0,1-.85.22.64.64,0,0,1-.12-.87,2.22,2.22,0,0,0,.22-1.74c-.07-.4-.08-.81-.13-1.21a2.18,2.18,0,0,0-.1-.52,1.55,1.55,0,0,1,0-1.33,3.86,3.86,0,0,0,.2-.66c0-.12.05-.25.09-.36a.7.7,0,0,1,.66-.46.59.59,0,0,1,.5.54c.07.33.11.66.16,1Z" transform="translate(-185.19 -97.74)"/><path class="cls-3" d="M787.63,337.38a1,1,0,0,1-.94-.5,3.54,3.54,0,0,1-.56-1.54,1.36,1.36,0,0,0-.25-.62,1.09,1.09,0,0,1-.14-1,.8.8,0,0,1,.39-.4.88.88,0,0,1,1.11.36c.2.3.35.62.52.93s.26.42.36.65a5.44,5.44,0,0,1,.43,1.07A.83.83,0,0,1,787.63,337.38Z" transform="translate(-185.19 -97.74)"/><path class="cls-3" d="M791.47,344.43a3,3,0,0,1-1.8-1.05,2.37,2.37,0,0,0-.31-.43,2.09,2.09,0,0,1-.62-1.48c0-.23,0-.48.2-.56a.82.82,0,0,1,.59.08,4.29,4.29,0,0,1,1.42,1.19,3.81,3.81,0,0,0,1,1,1,1,0,0,1,.4.47C792.57,344.1,792.23,344.44,791.47,344.43Z" transform="translate(-185.19 -97.74)"/><path class="cls-3" d="M831.5,344.66a2,2,0,0,1,1-1.84.85.85,0,0,1,1-.07.65.65,0,0,1,.33.73,7.39,7.39,0,0,1-.28,1.4,1.53,1.53,0,0,1-1.46.79.54.54,0,0,1-.49-.48C831.52,345,831.51,344.84,831.5,344.66Z" transform="translate(-185.19 -97.74)"/><path class="cls-3" d="M794.25,280a1.49,1.49,0,0,1,.07-.36.41.41,0,0,1,.68-.2,1.21,1.21,0,0,1,.44.46,8.7,8.7,0,0,1,1,2,1.53,1.53,0,0,1,0,.52.59.59,0,0,1-1,.24,3.65,3.65,0,0,1-.61-.93A3.9,3.9,0,0,1,794.25,280Z" transform="translate(-185.19 -97.74)"/><path class="cls-3" d="M792.42,342.19a1.33,1.33,0,0,1,.34-1.15.81.81,0,0,1,.83-.2.77.77,0,0,1,.53.62c.09.37.18.75.28,1.12a.86.86,0,0,1-.35.94.81.81,0,0,1-.95,0C792.63,343.17,792.28,342.76,792.42,342.19Z" transform="translate(-185.19 -97.74)"/><path class="cls-3" d="M772.15,321.77a1.13,1.13,0,0,1,1.07-1.17c.43,0,.65.17.64.59a1.86,1.86,0,0,1-.68,1.22.68.68,0,0,1-.76,0C772.2,322.37,772.14,322.18,772.15,321.77Z" transform="translate(-185.19 -97.74)"/><path class="cls-3" d="M774.72,317.85a.85.85,0,0,1-1.08.91.81.81,0,0,1-.42-.28,1.11,1.11,0,0,1,.71-1.52C774.43,316.9,774.73,317.24,774.72,317.85Z" transform="translate(-185.19 -97.74)"/><path class="cls-3" d="M832.35,216.66c-.45,0-.62-.18-.58-.51a.91.91,0,0,1,.17-.43,9.56,9.56,0,0,1,.89-.91.43.43,0,0,1,.7.26.85.85,0,0,1-.24.78c-.19.18-.36.39-.55.57A3,3,0,0,1,832.35,216.66Z" transform="translate(-185.19 -97.74)"/><path class="cls-3" d="M835.74,219.38c0,.19,0,.37,0,.54a.44.44,0,0,1-.4.43.54.54,0,0,1-.57-.3,1.48,1.48,0,0,1,.39-1.45.34.34,0,0,1,.57.21A3.81,3.81,0,0,1,835.74,219.38Z" transform="translate(-185.19 -97.74)"/><path class="cls-3" d="M836.67,238.67c-.14.09-.22.19-.32.2s-.19-.15-.17-.19a.36.36,0,0,1,.22-.2C836.45,238.46,836.54,238.57,836.67,238.67Z" transform="translate(-185.19 -97.74)"/><path class="cls-2" d="M780.45,309.94c0-.61.07-1.21.15-1.81,0-.41.34-.56.62-.3.57.51,1.34.65,1.92,1.12.4.32.8.64,1.17,1a17.15,17.15,0,0,1,1.26,1.3c.58.67,1.12,1.37,1.68,2.06.2.25.43.47.61.73.33.5.64,1,1,1.53a.62.62,0,0,1,.07.19,4.14,4.14,0,0,0,1,2.08,10.89,10.89,0,0,1,.62,1.23c.21.39.44.77.66,1.15.32.55.65,1.09,1,1.65,0,.1,0,.25,0,.38a.76.76,0,0,1-.34,0c-.58-.33-1.16-.68-1.72-1a5.66,5.66,0,0,1-.54-.43,1.11,1.11,0,0,0-.24-.2,6.11,6.11,0,0,1-1.82-1.45l-1.94-1.82c-.25-.23-.55-.4-.81-.61a6.93,6.93,0,0,1-1.33-1.43,11.67,11.67,0,0,0-1.54-2,3.91,3.91,0,0,1-.6-.88,9.43,9.43,0,0,1-.61-.94,1.77,1.77,0,0,1-.14-.66,8,8,0,0,1,0-.85Z" transform="translate(-185.19 -97.74)"/><path class="cls-2" d="M824.55,356a11.21,11.21,0,0,1-1.31-.14,3.75,3.75,0,0,1-1.09-.4,5.63,5.63,0,0,1-2.16-1.65,16.15,16.15,0,0,1-.93-1.45,15.7,15.7,0,0,1-.65-1.73,3.4,3.4,0,0,0-.3-.79,1.07,1.07,0,0,1-.1-1c.14-.37.31-.45.64-.22a4.84,4.84,0,0,1,.63.57l1.5,1.43c.14.13.32.23.46.36a3.87,3.87,0,0,1,.41.4c.12.13.19.32.33.41a9,9,0,0,1,1.71,1.93,14.16,14.16,0,0,1,1.13,1.72.45.45,0,0,1,0,.39C824.79,356,824.61,356,824.55,356Z" transform="translate(-185.19 -97.74)"/><path class="cls-2" d="M815.93,245.11a.56.56,0,0,1,.25.07c.37.24.73.5,1.09.74l.45.29c.13.08.28.15.4.24a5.17,5.17,0,0,0,1.88,1.06.9.9,0,0,1,.24.12l2.25,1.68a.56.56,0,0,1,.24.55c-.06,1-.12,2-.15,3,0,.33.07.67.09,1a3.66,3.66,0,0,1,0,.74.41.41,0,0,1-.55.36,3.74,3.74,0,0,1-.86-.27c-.71-.31-1.42-.63-2.11-1-.43-.23-.82-.55-1.23-.82a3.48,3.48,0,0,0-.36-.22,11.82,11.82,0,0,0-1.23-.51,5.81,5.81,0,0,1-1.53-.83,1.38,1.38,0,0,1-.68-1.25c0-1.22,0-2.45,0-3.67a1.21,1.21,0,0,1,1-1.2C815.38,245.13,815.63,245.13,815.93,245.11Z" transform="translate(-185.19 -97.74)"/><path class="cls-2" d="M819.47,220.18c-.1,0-.14,0-.16,0-.55-.28-1.09-.57-1.63-.86-.13-.06-.27-.09-.4-.15-.29-.13-.34-.34-.11-.58a2.85,2.85,0,0,1,1.94-1c.31,0,.41.06.45.38,0,.12,0,.25,0,.37,0,.48,0,1,0,1.43A2.32,2.32,0,0,1,819.47,220.18Z" transform="translate(-185.19 -97.74)"/></g><g id="logo没有白色斑点"><path class="cls-2" d="M829.79,213.4a2.35,2.35,0,0,0,1.39.09.64.64,0,0,0,.48-.45,3.44,3.44,0,0,1,.34-.66.72.72,0,0,0,0-.85l-.61-.87a.55.55,0,0,1,.09-.84.52.52,0,0,1,.77.21,2.58,2.58,0,0,1,.23.54c.09.25.14.52.24.76a.58.58,0,0,0,1,.18,1.51,1.51,0,0,0,.27-.5c.15-.47.26-.59.57-.58a.81.81,0,0,1,.7.7,3.33,3.33,0,0,1,0,.63c-.11.76-.23,1.52-.33,2.27a1.26,1.26,0,0,0,.27,1.16c.15.15.08.32,0,.49a4.58,4.58,0,0,0-.3,1.68,1.42,1.42,0,0,0,0,.36.75.75,0,0,0,.69.43c.3,0,.33-.29.39-.51a.21.21,0,0,0,0-.15c-.27-1,.35-1.8.26-2.73a2.28,2.28,0,0,1,.21-.77c.1-.32.22-.63.32-1s.08-.43.32-.43a.67.67,0,0,1,.44.24,10.91,10.91,0,0,1,.91,1.31,2.36,2.36,0,0,1,.23.92c0,.44,0,.89,0,1.33,0,.61,0,1.21.1,1.81a2.52,2.52,0,0,1-.58,2,5,5,0,0,0-1,1.92,1.83,1.83,0,0,0-.08.57,1,1,0,0,0,1.32.82.67.67,0,0,0,.38-.54c.15-.57.28-1.14.44-1.71.09-.3.1-.29.5-.44a.92.92,0,0,1,.11.33,3.33,3.33,0,0,0,.48,1.72,1.52,1.52,0,0,1,.08,1.42,1.21,1.21,0,0,0-.07.63c0,.31.11.63.14,1a6.83,6.83,0,0,1,0,1.11,2,2,0,0,0,.28,1.37,6.19,6.19,0,0,1,.3.57,1.24,1.24,0,0,1,.08,1,2.6,2.6,0,0,0-.12.46c0,1.05-.12,2.1-.13,3.15a6.89,6.89,0,0,1-.18,1.69.58.58,0,0,1-.42.49.77.77,0,0,0-.25.1.75.75,0,0,0-.4,1.1c.07.17.18.31.26.47a1.5,1.5,0,0,1-.07,1.84,1.85,1.85,0,0,0-.41,1.44c0,.37.09.71.52.83a.47.47,0,0,1,.32.51,7.36,7.36,0,0,1-.51,2.81,4.24,4.24,0,0,0-.32,1.5,5.37,5.37,0,0,1-.34,1.81,5.16,5.16,0,0,0-.3,1.36,2.79,2.79,0,0,0,.22,1.61,2.15,2.15,0,0,1,.15,1.2,7.27,7.27,0,0,0,0,1.32,3.21,3.21,0,0,1-.2,1.62,10,10,0,0,0-.49,1.52,2,2,0,0,0,.34,1.62,1.79,1.79,0,0,1,.31,1.21,2.2,2.2,0,0,0,.12.84,8,8,0,0,1,.11,2.49,3.14,3.14,0,0,1-1,1.83,6.74,6.74,0,0,0-.58.82.91.91,0,0,0,.09,1.05,7.27,7.27,0,0,0,.8.86,1.14,1.14,0,0,1,.35,1.34,3.94,3.94,0,0,0-.28,1.73,5,5,0,0,0,.19.93,1.18,1.18,0,0,1-.17,1.29,1.77,1.77,0,0,0-.44,1.24,22.4,22.4,0,0,1-.37,3.28,10.52,10.52,0,0,1-.38,1.77,5.57,5.57,0,0,0-.07,1.16,4.49,4.49,0,0,1,0,.9,4.1,4.1,0,0,0,0,2c.12.47.2.94.31,1.41a1.39,1.39,0,0,0,.12.41,3.15,3.15,0,0,1,.3,1.71c0,.62,0,1.25-.1,1.86a4.34,4.34,0,0,1-.29,1.35,7.51,7.51,0,0,0-.46,2.18,5.15,5.15,0,0,1-.3,1.29,6.6,6.6,0,0,0-.45,1.8,3.37,3.37,0,0,1-.19.89,9.45,9.45,0,0,1-1,2.15l-.12.18a1.1,1.1,0,0,0,.47,1.7,3.73,3.73,0,0,1,.78.46,3.93,3.93,0,0,0,1.4,1c.09,0,.15.19.21.29s.18.35.28.52a.55.55,0,0,1,0,.73,1.32,1.32,0,0,0-.28.89c0,.36,0,.72,0,1.07a.69.69,0,0,0,.19.64.91.91,0,0,1,.31.81,2,2,0,0,0,.33,1.14,3.05,3.05,0,0,1,.6,1.9,4.21,4.21,0,0,0,.06.79c0,.2,0,.4,0,.59a.89.89,0,0,1-.53.8.67.67,0,0,0-.17,1.22,1.28,1.28,0,0,1,.53,1.15.27.27,0,0,0,0,.15,1.09,1.09,0,0,1-.19,1.28.27.27,0,0,0-.08.19,5.54,5.54,0,0,1-.83,2.22,8.92,8.92,0,0,1-.92,1.55,6,6,0,0,1-1,1l-.64.56a.85.85,0,0,0,0,1.38,1.18,1.18,0,0,1,.33,1,.62.62,0,0,1-.4.62.91.91,0,0,0-.4.25.38.38,0,0,0,.26.67.78.78,0,0,0,.75-.3,3.15,3.15,0,0,1,1.14-.94c.29-.15.54-.11.62.21a1.77,1.77,0,0,1-.21,1.73,2.38,2.38,0,0,0-.37.64,1,1,0,0,0,0,.88,2.61,2.61,0,0,1,.23,1.76A1.18,1.18,0,0,0,838,330a.81.81,0,0,1,.2.79.67.67,0,0,0,0,.42,1.12,1.12,0,0,1-.19,1.15,1.66,1.66,0,0,0-.21.59.73.73,0,0,0,.44.78c.44.24.54.37.38.83a1.39,1.39,0,0,0,.07,1.13,2,2,0,0,1-.16,1.89c-.31.61-.62,1.23-.91,1.86a.93.93,0,0,0-.06.83.9.9,0,0,1,0,.72,3.78,3.78,0,0,0-.16,1.89,3.53,3.53,0,0,1-.09.9,9.72,9.72,0,0,0,0,1.32,3.51,3.51,0,0,1-.37,2.27,15.88,15.88,0,0,0-.87,1.87,1.32,1.32,0,0,0,0,1.1,2,2,0,0,1-.34,2.14,2,2,0,0,0-.38,1,1.13,1.13,0,0,0,.21.73,1.59,1.59,0,0,1,.18,2.06c-.16.28-.3.57-.48.83a1.31,1.31,0,0,1-.92.67,1.73,1.73,0,0,0-1,.63,2,2,0,0,1-.86.59,1.51,1.51,0,0,0-1,1.35,2.57,2.57,0,0,0,0,.48,1.11,1.11,0,0,1-.68,1.11,4.11,4.11,0,0,0-1.09.85c-.21.21-.48.36-.69.57a4.22,4.22,0,0,0-.64.77c-.3.47-.29.51-.84.38a2.06,2.06,0,0,0-1.3.12.92.92,0,0,0-.32.18,2.06,2.06,0,0,1-1.72.56c-.9-.05-1.81-.09-2.71-.12a2.91,2.91,0,0,1-1.76-.49,5.32,5.32,0,0,0-1.13-.6,5.26,5.26,0,0,1-1-.65,2.59,2.59,0,0,0-1-.37,2.12,2.12,0,0,1-1.22-.71.36.36,0,0,0-.1-.11,8.11,8.11,0,0,1-1.71-1.75,2.51,2.51,0,0,0-1.1-.73,1.75,1.75,0,0,0-1.63.18,2.78,2.78,0,0,1-.57.29,1.26,1.26,0,0,1-1.22-.05c-.59-.36-1.2-.68-1.79-1s-.55-.46-.36-1a.9.9,0,0,0-.31-1.13c-.44-.34-.9-.64-1.33-1a6.2,6.2,0,0,1-1.86-1.64,2.28,2.28,0,0,0-.49-.49l-1.37-1.1a1.48,1.48,0,0,1-.44-.46,3.09,3.09,0,0,0-1.48-1.33,7.43,7.43,0,0,0-1.44-.79,1.21,1.21,0,0,1-.52-.51c-.55-.81-1.08-1.63-1.62-2.44a2.42,2.42,0,0,0-1.44-1,6.17,6.17,0,0,1-1.21-.53.76.76,0,0,0-.71-.08,3.21,3.21,0,0,1-1.79,0c-.26,0-.37-.27-.43-.49a.64.64,0,0,0-.72-.56,1.27,1.27,0,0,1-.46-.13c-.15-.05-.29-.14-.44-.18a6.85,6.85,0,0,1-1.78-.82,1.83,1.83,0,0,0-.8-.25,2.07,2.07,0,0,1-1.43-.72c-.42-.46-.86-.9-1.27-1.37a7.25,7.25,0,0,1-.53-.79,10,10,0,0,0-.93-1.66,1.41,1.41,0,0,1-.23-.74c-.09-1-.29-1.15-1.26-.87-.36.11-.71.23-1.07.33a1.22,1.22,0,0,1-1.22-.35c-.42-.4-.9-.74-1.32-1.16s-.48-.65-.76-.95c-.5-.52-.84-1.2-1.52-1.55a.37.37,0,0,1-.15-.51,3.81,3.81,0,0,1,.29-.52,1,1,0,0,0-.34-1.45,2.06,2.06,0,0,0-2-.23,5.55,5.55,0,0,1-1.36.26.89.89,0,0,1-.93-.47,3.14,3.14,0,0,0-.73-.77,1,1,0,0,1-.38-.79c0-.24,0-.49,0-.74a2.77,2.77,0,0,0-.72-2,3.45,3.45,0,0,1-.84-1.63c-.17-.82-.45-1.61-.68-2.41a2.48,2.48,0,0,0-.2-.44,3.81,3.81,0,0,1-.55-2.09c0-.32,0-.64,0-1a.75.75,0,0,0-.52-.78c-.45-.17-.54-.37-.32-.77a1.67,1.67,0,0,0,.13-1.67.45.45,0,0,1,.13-.54c.09-.09.19-.16.28-.24a1,1,0,0,0,.31-1.49,1.65,1.65,0,0,1,0-1.81c.44-.78.85-1.56,1.29-2.34a4.32,4.32,0,0,1,.46-.71,1.88,1.88,0,0,0,.44-1.39,1.28,1.28,0,0,1,.45-1.08,3.56,3.56,0,0,0,1-2.67,1.19,1.19,0,0,1,.19-.81c.17-.21.36-.42.67-.35a.77.77,0,0,1,.55.53,1.39,1.39,0,0,1,.11.52,3.6,3.6,0,0,1-.86,2.77,2.31,2.31,0,0,0-.7,1.79,1.14,1.14,0,0,0,.17.54c.34.48.58.49,1.07.16a1.43,1.43,0,0,0,.61-.85,6.32,6.32,0,0,1,1.18-2.18,1.75,1.75,0,0,0,.3-1.06c0-.92,0-1.85,0-2.77a16.23,16.23,0,0,1,.25-2.07,2.69,2.69,0,0,1,.34-.76,3.18,3.18,0,0,0,.34-.66,6.74,6.74,0,0,1,1.06-2.25c.32-.53.6-1.09.9-1.63a2.77,2.77,0,0,1,.22-.37c.46-.58.93-1.16,1.39-1.75.26-.34.46-.73.74-1,.92-1,1.86-2,2.79-2.93a1,1,0,0,1,1-.3,2.33,2.33,0,0,0,.53.07,1.26,1.26,0,0,0,1.42-1.09,3.85,3.85,0,0,0,0-1.85,1.72,1.72,0,0,1,.16-1.32,16,16,0,0,1,2-2.87,7.51,7.51,0,0,1,1.08-.94,2.91,2.91,0,0,0,.33-.26l1.38-1.55a3.7,3.7,0,0,1,.24-.29,5,5,0,0,0,1.27-1.54,2,2,0,0,0,.34-.83,4.47,4.47,0,0,1,1-2.3,2,2,0,0,0,.42-1.24c0-.69,0-1.38.1-2.07a.7.7,0,0,1,.86-.7l.37,0a.84.84,0,0,0,.81-1.31,7.14,7.14,0,0,0-.57-1,1.7,1.7,0,0,1-.3-1c0-.7-.07-1.39-.11-2.08a.71.71,0,0,0-.39-.6,1,1,0,0,1-.47-1q0-1.44-.09-2.88a2.21,2.21,0,0,0-.33-.82,4.87,4.87,0,0,1-.65-1.56,3,3,0,0,1,.7-2.23,2.61,2.61,0,0,0,.39-.69.54.54,0,0,0-.24-.73s0,0,0,0a1.26,1.26,0,0,1-.82-1.58,2.9,2.9,0,0,0,0-.59,2,2,0,0,0-.44-1.28,1,1,0,0,1,.19-1.57,2.13,2.13,0,0,0,.31-.29,1,1,0,0,0,0-1.61l-.24-.28a1.17,1.17,0,0,1-.14-1.56,3.9,3.9,0,0,0,.52-1.55,22.7,22.7,0,0,1,.52-2.45,6.1,6.1,0,0,1,.73-1.41,1.47,1.47,0,0,0,.05-1.56,6.22,6.22,0,0,0-.5-.76.74.74,0,0,1-.08-.88c.27-.46.53-.92.81-1.37s.4-.62.59-.94a1.18,1.18,0,0,0,.19-.37,25.78,25.78,0,0,1,1-2.58,1.29,1.29,0,0,1,1.06-.8c.33-.06.44,0,.58.32a3.48,3.48,0,0,1,.3,1.56,1.93,1.93,0,0,0,0,.42c0,.07.12.17.18.17a.33.33,0,0,0,.24-.15c.19-.4.35-.81.52-1.21a7.56,7.56,0,0,0,.23-2.22.41.41,0,0,0-.2-.32.45.45,0,0,0-.37.12c-.1.08-.14.24-.21.36a1.67,1.67,0,0,1-.24.35c-.21.18-.43.12-.49-.14-.16-.74.18-1.3.91-1.14a.58.58,0,0,0,.64-.26,2.15,2.15,0,0,0,.56-1.62,1.16,1.16,0,0,1,.63-1.24,2.15,2.15,0,0,0,.87-.85.81.81,0,0,0,.07-.7.86.86,0,0,1,.73-1.18.45.45,0,0,1,.33.09.45.45,0,0,1,0,.34c-.13.29-.28.57-.42.86a.69.69,0,0,0-.1.19c-.12.61-.26,1.21-.34,1.82a7,7,0,0,0,0,1.12,2.1,2.1,0,0,1-.19,1,1,1,0,0,0,0,.93.44.44,0,0,0,.43.33.41.41,0,0,0,.4-.37c.12-.62.23-1.25.35-1.88a2.09,2.09,0,0,1,.14-.56c.19-.42.41-.83.61-1.25a1.53,1.53,0,0,1,.61-.7,1.09,1.09,0,0,0,.53-1.2,2.05,2.05,0,0,1,.13-1.2,3.33,3.33,0,0,0,.22-1.36,2.8,2.8,0,0,1,.31-1.55,2.32,2.32,0,0,0,.22-1.3,3.49,3.49,0,0,1,.41-1.74,1.57,1.57,0,0,1,.47-.55A12.4,12.4,0,0,0,807,213.6a8.92,8.92,0,0,0,1.49-1.58c.06-.1.21-.15.29-.24.3-.33.59-.66.87-1,.15-.17.25-.4.41-.56a2.28,2.28,0,0,0,.75-1.19.78.78,0,0,1,.52-.57,1.56,1.56,0,0,0,1-1,1.31,1.31,0,0,1,.37-.45.77.77,0,0,1,.93-.15,10.83,10.83,0,0,0,1.33.53,2.31,2.31,0,0,0,.83,0c.31,0,.38-.32.54-.53a1.54,1.54,0,0,1,1.37-.79H818a5.44,5.44,0,0,0,1.88-.12,6.14,6.14,0,0,1,2,.08c.35,0,.7.13,1,.16a2,2,0,0,1,1,.32,1.52,1.52,0,0,0,1.66-.05c.62-.36.64-.37,1.22.06a1.24,1.24,0,0,0,1.31.07c.1,0,.18-.13.27-.18.38-.21.63-.13.71.29a4.92,4.92,0,0,1,.06,1.21,4,4,0,0,0,.06,1.38,2.61,2.61,0,0,1,0,.79,2,2,0,0,0,.14,1,4,4,0,0,1,.15.62c.06.25.13.51.18.77S829.76,213.1,829.79,213.4Z" transform="translate(-185.19 -97.74)"/><path d="M814.16,263.8c.38.26.63.44.9.61s.49.27.74.41a8.92,8.92,0,0,0,1.34.75,5.08,5.08,0,0,1,1.28.63,2.64,2.64,0,0,0,1.37.67,1.87,1.87,0,0,1,.93.36c.76.49,1.53,1,2.31,1.43a26.54,26.54,0,0,1,2.31,1.33,2.2,2.2,0,0,0,.3.14c0-.21.05-.37.06-.52,0-.86,0-1.71.07-2.56,0-.43,0-.86,0-1.28a.91.91,0,0,0-.38-.78,12.09,12.09,0,0,1-1.87-1.19c-.07-.07-.2-.07-.3-.12-.47-.24-1-.47-1.41-.74s-.62-.48-1-.66a1.73,1.73,0,0,0-1.82,0,2,2,0,0,1-.79.27c-.35,0-.48-.13-.61-.46-.2-.52-.45-1-.68-1.54a.27.27,0,0,0-.07-.08c-.24-.22-.47-.44-.71-.64a16.55,16.55,0,0,0-2.74-1.64.63.63,0,0,0-.77.11,6.85,6.85,0,0,1-1,.63,2,2,0,0,0-.88,1.59c0,.54,0,1.1,0,1.65s0,1,0,1.54v.63c0,.3,0,.6,0,.9a7.83,7.83,0,0,1-.33,3.63,4,4,0,0,1-.41.73c-.25.34-.54.66-.8,1s-.28.41-.45.58a3,3,0,0,0-.63,1.05l.66.06a7.54,7.54,0,0,1,3.37.68,6.41,6.41,0,0,0,.91.27,3.08,3.08,0,0,1,.67.29c.77.49,1.52,1,2.29,1.48.4.25.84.44,1.27.66a.64.64,0,0,1,.18.1,24.12,24.12,0,0,0,2.47,1.65c.23.16.43.37.66.53.48.31,1,.6,1.45.9s.75.47,1.13.69.71.39,1.06.61a3.48,3.48,0,0,1,.58.43c.16.13.24.36.57.31a2.94,2.94,0,0,0,.12-.59c0-1.12,0-2.24.05-3.36a.94.94,0,0,0-.39-.79c-.35-.28-.63-.67-1.12-.77-.09,0-.17-.12-.25-.18l-.66-.45-1.24-.73-2.68-1.62a6.12,6.12,0,0,0-.83-.47,15,15,0,0,1-1.55-.91A14.56,14.56,0,0,0,815,269.8a1.42,1.42,0,0,1-1-1.56c.05-1.26,0-2.52,0-3.79A4,4,0,0,1,814.16,263.8Z" transform="translate(-185.19 -97.74)"/><path d="M826.14,233.57a2.2,2.2,0,0,0,.14-.51c0-.87,0-1.74,0-2.61a.7.7,0,0,0-.43-.63,4.12,4.12,0,0,0-1.31-.56,1.16,1.16,0,0,1-.44-.19,8.62,8.62,0,0,0-1.72-.92c-.61-.3-1.2-.64-1.82-.92-.16-.08-.3-.2-.46-.27l-1.64-.75a.69.69,0,0,1-.22-.16,4.76,4.76,0,0,0-1.28-.94c-.47-.31-1-.62-1.39-1a1.38,1.38,0,0,0-1.67,0,14.41,14.41,0,0,1-1.34.85,1.54,1.54,0,0,0-.73,1.47A8.91,8.91,0,0,1,812,228c-.06,1.9-.15,3.8-.25,5.71a1.72,1.72,0,0,1-.55,1.18c-.42.4-.84.8-1.25,1.22-.28.27-.52.58-.79.86s-.32.24-.45.38-.18.25-.15.36.2.15.32.19a1.13,1.13,0,0,0,.32,0,10.19,10.19,0,0,0,2.7-.2.55.55,0,0,1,.22,0c1.06.15,2.18-.11,3.19.43a.83.83,0,0,0,.32.06,1.18,1.18,0,0,1,.74.38,2.67,2.67,0,0,0,1.36.78,2.21,2.21,0,0,1,.64.26,14.56,14.56,0,0,0,1.38.8,7.64,7.64,0,0,1,1.49.67c.48.33,1,.62,1.49.93l1.58.95c.26.16.52.31.77.48a3.4,3.4,0,0,0,1,.57c0-.2.05-.36.06-.51,0-1,.06-2,.07-2.94a6.12,6.12,0,0,0,0-.74.7.7,0,0,0-.49-.57c-.56-.25-1.1-.55-1.65-.84-.27-.13-.53-.28-.79-.42l-.52-.28-.66-.3-1.65-.71s-.08-.08-.12-.1c-.21-.13-.42-.26-.64-.37a7.7,7.7,0,0,1-1.38-.68,9.26,9.26,0,0,0-2-1.27.79.79,0,0,1-.48-.54,4.43,4.43,0,0,1-.17-.94q0-1.71,0-3.42c0-.12.06-.34.14-.36a.52.52,0,0,1,.42.11,1.74,1.74,0,0,0,.9.42c.6.18,1.18.39,1.76.59a.38.38,0,0,1,.18.13,3.82,3.82,0,0,0,1.47.82c.42.18.9.22,1.2.62.06.08.19.09.28.14.27.14.54.27.8.42a5,5,0,0,0,1.79.78,4.11,4.11,0,0,1,.86.28Z" transform="translate(-185.19 -97.74)"/><path d="M826,250.93h0c0-.82,0-1.64,0-2.46a1.09,1.09,0,0,0-.7-1.13,12.76,12.76,0,0,1-1.38-.81c-.23-.13-.44-.29-.67-.43-.45-.27-.91-.53-1.37-.79a12.36,12.36,0,0,0-2.61-1.62.89.89,0,0,1-.23-.13,14.93,14.93,0,0,0-2-1.25,4.62,4.62,0,0,0-2.06-.4c-.52,0-1,.05-1.54.11s-.88.14-1.31.23a.58.58,0,0,0-.44.49,13.94,13.94,0,0,0-.26,1.41,18.14,18.14,0,0,0-.05,4.1,2.06,2.06,0,0,1,0,.43,9.88,9.88,0,0,0,.3,4,1.63,1.63,0,0,0,.5.8,4.94,4.94,0,0,1,.64.56,4.81,4.81,0,0,0,2.18,1.47,9.29,9.29,0,0,1,1.67.68c.58.33,1.2.6,1.78.93.82.46,1.62,1,2.42,1.45l.9.56c.57.35,1.17.66,1.72,1.05a2.1,2.1,0,0,0,2,.23.61.61,0,0,0,.31-.32,1.3,1.3,0,0,0,.09-.52c0-1.41,0-2.81,0-4.22a1.07,1.07,0,0,0-.23-.8.29.29,0,0,1,0-.43c.33-.23.32-.57.33-.91Z" transform="translate(-185.19 -97.74)"/><path d="M826.31,227.49c0-.38.1-.68.1-1q.08-3.95.12-7.9c0-.87,0-1.74,0-2.61a.79.79,0,0,0-.3-.71,1.62,1.62,0,0,1-.18-.19c-.44-.48-.88-1-1.34-1.43a.38.38,0,0,0-.65.22,2.07,2.07,0,0,0,0,.43c0,.5,0,1,0,1.49a49.6,49.6,0,0,0-.1,6.45c0,.19,0,.37-.18.46a.4.4,0,0,1-.52-.17,2,2,0,0,1-.3-.77c-.07-.64-.07-1.28-.1-1.92,0-.42-.06-.85-.1-1.27s-.1-.74-.11-1.11c-.05-1-.06-2-.11-2.93,0-.52-.22-.73-.74-.68a11.14,11.14,0,0,0-1.89.32,10.85,10.85,0,0,0-1.42.58c-.27.12-.53.26-.8.39s-.32.15-.48.24c-.78.44-1.58.87-2.35,1.34a16.44,16.44,0,0,0-1.6,1.13,2.79,2.79,0,0,0-.53.73.62.62,0,0,0,.07.79,5.92,5.92,0,0,0,2.49,1.75,13.43,13.43,0,0,1,1.6.71,13.13,13.13,0,0,1,1.07.77,5.89,5.89,0,0,0,.66.34,5,5,0,0,1,.61.31,5.58,5.58,0,0,0,1.16.82,8.07,8.07,0,0,1,2,1.13,10.88,10.88,0,0,0,1.06.71c.72.41,1.46.8,2.19,1.2C825.76,227.25,826,227.33,826.31,227.49Z" transform="translate(-185.19 -97.74)"/><path d="M813.48,301.93h.08c0-.29,0-.57,0-.86l.12-3.41a2.42,2.42,0,0,0-.57-1.88c-.19-.19-.4-.36-.6-.53l-2.2-1.84-.18-.11c-.35-.18-.6-.1-.7.28a2.68,2.68,0,0,0-.1.85c0,1.33.06,2.66.09,4a7.19,7.19,0,0,0,.53,2.86.62.62,0,0,1,0,.5,3.15,3.15,0,0,0-.3,1.45,6.43,6.43,0,0,1-.18,1.85c-.08.33-.08.67-.13,1a7.43,7.43,0,0,0,.4,2.72.8.8,0,0,0,.37.49,10.22,10.22,0,0,1,1.85,1.42,6.59,6.59,0,0,0,.88.7c.47.29.84.09.88-.46,0-.21,0-.43,0-.64a15.27,15.27,0,0,0-.22-4.72,2.35,2.35,0,0,1,0-.53Z" transform="translate(-185.19 -97.74)"/><path d="M813.41,284.57h0c0-.5,0-1,0-1.49,0-.67.19-.79.77-.44a7.6,7.6,0,0,0,1.28.63c.39.15.54.12.65-.29a2.65,2.65,0,0,0,.07-.63c0-.55,0-1.1,0-1.65a1.11,1.11,0,0,0-.64-1.13c-.27-.17-.55-.32-.81-.51a5.11,5.11,0,0,0-1.64-1.07c-.09,0-.17-.12-.26-.18-.63-.42-1.26-.85-1.91-1.26-.32-.2-.58-.08-.68.29a1.57,1.57,0,0,0,0,.37c0,1.56-.11,3.13-.13,4.69s0,3,0,4.48a3,3,0,0,0,.09.85,2.51,2.51,0,0,1,0,1.36,2,2,0,0,0,.84,2.08,8.94,8.94,0,0,1,1.09.83c.49.37,1,.71,1.53,1.06a5.07,5.07,0,0,0,.46.35.51.51,0,0,0,.8-.39,2.44,2.44,0,0,0,0-.27c0-.87,0-1.74,0-2.61a1.14,1.14,0,0,0-.77-1.25,1.21,1.21,0,0,1-.85-1.32c0-.17,0-.35,0-.53C813.34,285.88,813.38,285.23,813.41,284.57Z" transform="translate(-185.19 -97.74)"/><path d="M809.73,322.64h0v-2.72a2.38,2.38,0,0,1,0-.38c0-.24.2-.33.43-.23a1.31,1.31,0,0,1,.34.24c.66.59,1.32,1.19,2,1.77.27.24.54.15.64-.21a2.23,2.23,0,0,0,.09-.63c0-1.08,0-2.17,0-3.25a5.51,5.51,0,0,0-.1-.9.84.84,0,0,0-.5-.66,3.4,3.4,0,0,1-1.09-.83c-.26-.23-.57-.41-.85-.63a10.67,10.67,0,0,1-1-.81c-.22-.22-.43-.39-.74-.3s-.44.39-.46.71c0,.49-.08,1-.09,1.49q0,3.7,0,7.41c0,.45.06.89,0,1.34,0,.65,0,1.31-.06,2a12.17,12.17,0,0,1-.21,3.13.69.69,0,0,0,.18.69,3.9,3.9,0,0,0,1.52,1.21.86.86,0,0,1,.23.13,8.6,8.6,0,0,0,1.69,1.19c.12,0,.2.19.29.3a3.3,3.3,0,0,0,.22.3c.21.2.45.21.59,0a1.54,1.54,0,0,0,.34-1.3,4.65,4.65,0,0,1-.18-1.53c0-.5,0-1,0-1.49a1,1,0,0,0-.44-.86c-.36-.28-.79-.46-1.15-.73a2.92,2.92,0,0,0-1.18-.59.69.69,0,0,1-.59-.66c0-.22,0-.46,0-.69Z" transform="translate(-185.19 -97.74)"/><path d="M824.69,328a6.25,6.25,0,0,0-.37-3.09,4.21,4.21,0,0,0-.76-1.58c-.34-.35-.72-.68-1.09-1a1.3,1.3,0,0,0-.41-.24c-.52-.17-.82.09-.79.64q.08,1.27.12,2.55c0,.21,0,.43,0,.64,0,1.19-.12,2.38-.13,3.57s0,2.17,0,3.26c0,.33-.07.67-.09,1-.08,1.2-.16,2.41-.21,3.62a1.55,1.55,0,0,0,.24.68c.25.51.71.87.93,1.41a1.48,1.48,0,0,0,.7.84c.9.42,1.64.24,1.6-.92,0-.79,0-1.57,0-2.35,0-1.49.18-3,0-4.47a2.59,2.59,0,0,1,0-.48v-1a8,8,0,0,1,0-.85c0-.31.1-.63.12-.94S824.69,328.44,824.69,328Z" transform="translate(-185.19 -97.74)"/><path d="M825,312h0c0-1.14.07-2.28.08-3.41s0-2.5,0-3.74a1.48,1.48,0,0,0-.18-.82,4.14,4.14,0,0,0-2.05-1.63.67.67,0,0,0-.87.31,3.67,3.67,0,0,0-.37,2.43,10.65,10.65,0,0,1,.17,1.48c0,1.83,0,3.66-.1,5.49a16.29,16.29,0,0,0,0,3.2.5.5,0,0,1,0,.21,8,8,0,0,0,0,2.18,1.14,1.14,0,0,0,.23.56,5.32,5.32,0,0,0,.38.45,3.76,3.76,0,0,0,1.9,1.11c.44.14.64,0,.69-.46a2.11,2.11,0,0,0,0-.26c0-1.12.06-2.24.07-3.36S825,313.25,825,312Z" transform="translate(-185.19 -97.74)"/><path d="M822.9,289.46h0v3.47a1.47,1.47,0,0,1,0,.21c0,.31-.22.4-.48.23a1.14,1.14,0,0,1-.16-.15.39.39,0,0,0-.52-.1.63.63,0,0,0-.24.43c-.09,1-.17,2-.22,3A1.41,1.41,0,0,0,822,298c.33.17.65.37,1,.57a5.2,5.2,0,0,1,.44.38,7.11,7.11,0,0,0,.84.72c.58.35,1,.13,1-.53v-.1l.06-2.4c0-1.25,0-2.49,0-3.74,0-2.15,0-4.31.09-6.46a1.15,1.15,0,0,0-.6-1.1l-.37-.22a3.45,3.45,0,0,1-.92-.7,2.71,2.71,0,0,0-.81-.51c-.34-.14-.57.05-.51.42a1.07,1.07,0,0,0,.2.54,1.82,1.82,0,0,1,.44,1.43Z" transform="translate(-185.19 -97.74)"/><path class="cls-3" d="M826.65,358.91a4.6,4.6,0,0,1-.83,0c-.37-.06-.74-.09-1.1-.17a7.42,7.42,0,0,1-.9-.32,5,5,0,0,0-.65-.22,2.6,2.6,0,0,1-1.36-.54c-.57-.5-1.25-.87-1.84-1.36a6.92,6.92,0,0,1-1.46-1.45c-.35-.53-.84-.91-1.2-1.4a5.11,5.11,0,0,1-.93-1.66,11.79,11.79,0,0,0-.57-1.38,6.67,6.67,0,0,1-.29-.74c-.2-.68-.36-1.37-.56-2.05-.07-.24-.19-.46-.28-.69a3.43,3.43,0,0,1-.32-1,2.28,2.28,0,0,0-1.09-1.79c-.37-.27-.71-.59-1.07-.88s-.51-.37-.76-.56a1.72,1.72,0,0,1-.34-.32,13.67,13.67,0,0,1-.85-1.29,1.19,1.19,0,0,0-1.08-.66,5.83,5.83,0,0,1-.59,0,1.86,1.86,0,0,1-1.11-.44c-.34-.28-.76-.46-1.12-.71a1.65,1.65,0,0,1-.53-.52,4.69,4.69,0,0,0-1.26-1.29c-.42-.37-.86-.73-1.32-1.06s-1-.63-1.45-1a3.09,3.09,0,0,0-1.35-.59.49.49,0,0,1-.29-.22c-.3-.44-.57-.9-.86-1.34a2.57,2.57,0,0,0-.38-.57.66.66,0,0,0-.47-.14c-.2,0-.24.24-.24.42a.86.86,0,0,0,0,.32,8.6,8.6,0,0,0,.58,1.93,11.06,11.06,0,0,1,.61,1.36,1.21,1.21,0,0,1,.09.41,1.94,1.94,0,0,0,.42,1.19,1.34,1.34,0,0,1,.2.7,2.2,2.2,0,0,0,.35,1.1,1.22,1.22,0,0,1,.19.6,1.7,1.7,0,0,0,.38,1,.68.68,0,0,1,.09.75c-.13.31-.45.38-.63.11a3,3,0,0,1-.72-1.46,1.27,1.27,0,0,0-.41-.66,2.47,2.47,0,0,1-.69-1,.57.57,0,0,0-.16-.27,2.49,2.49,0,0,1-.47-1,6.87,6.87,0,0,0-.92-2.07l0-.09-.69-1.78a.84.84,0,0,0-.15-.33,2.48,2.48,0,0,1-.75-1.39,5.57,5.57,0,0,0-1.89-2.71c-.42-.35-.8-.75-1.21-1.12-.06-.06-.13-.14-.21-.15a2.63,2.63,0,0,1-1-.64c-.52-.36-1.06-.71-1.57-1.08s-.73-.62-1.12-.91-.55-.38-.83-.56a2.47,2.47,0,0,1-1-1.16,3.27,3.27,0,0,0-.7-1,1.76,1.76,0,0,0-.83-.34,5.32,5.32,0,0,1-1.89-.94,1.19,1.19,0,0,1-.5-.84,6.48,6.48,0,0,0-.38-1l-.25-.54s0-.1,0-.15c-.33-.66-.66-1.32-1-2a5.93,5.93,0,0,1-.72-1.76,8.56,8.56,0,0,0-.61-1.76,3.2,3.2,0,0,1-.16-.39,17.85,17.85,0,0,1-.77-3.52c0-.5,0-1,0-1.5a2.87,2.87,0,0,1,.62-2,2.24,2.24,0,0,1,2.06-.83,4,4,0,0,1,1.71.69,3.29,3.29,0,0,0,.86.52,14.67,14.67,0,0,1,2,1.36,1.72,1.72,0,0,1,.33.26c.67.69,1.38,1.35,2,2.09A13.3,13.3,0,0,1,790,312.6a5.1,5.1,0,0,0,.58.74c.54.67,1,1.44,1.55,2.07a2.49,2.49,0,0,1,.79,1.31,2.1,2.1,0,0,0,.33.6c.26.44.54.87.76,1.33s.37,1,.61,1.53a7.17,7.17,0,0,0,.78,1.19,5,5,0,0,1,1,1.62,5.08,5.08,0,0,0,.72,1.1,1.3,1.3,0,0,1,.24.68,2.42,2.42,0,0,0,1.23,2.18,3.57,3.57,0,0,1,1,1.24c.13.25.29.42.59.31A1.77,1.77,0,0,1,802,329a16.74,16.74,0,0,0,2,1.43,15.85,15.85,0,0,1,1.52,1.14c.42.27.83.55,1.24.83l1.28.95c.17.12.36.23.54.34s.48.3.71.47c.73.58,1.45,1.19,2.19,1.77.29.23.62.41.91.64s.42.45.67.61a3,3,0,0,1,1.41,1.86c.07.23.15.46.45.45a.54.54,0,0,0,.5-.41,1.36,1.36,0,0,0,.11-.62,7.89,7.89,0,0,1,0-2.17,9.88,9.88,0,0,0,0-1.44c0-1.45,0-2.89,0-4.33,0-2-.07-4.06-.08-6.09,0-.4.12-.8.16-1.2.09-.78.18-1.56.23-2.34.06-1,.05-1.92.14-2.88a5.2,5.2,0,0,0,0-2.51,3,3,0,0,1,0-1.16c.06-2.67.15-5.34.18-8,0-1.39-.06-2.78-.08-4.16,0-.55,0-1.11.06-1.66.07-1.47.15-3,.21-4.42a2.21,2.21,0,0,1,.23-.87,1.52,1.52,0,0,0,.19-.75c0-.86-.15-1.71-.22-2.56a7,7,0,0,1-.07-.79c0-2.16,0-4.31,0-6.46,0-1.23.12-2.46.18-3.68a1.65,1.65,0,0,1,0-.32c.09-.3.24-.35.51-.22a8.46,8.46,0,0,1,1.62,1.11,2,2,0,0,0,.66.32,1,1,0,0,1,.77.92c0,.19,0,.39,0,.58,0,.92.05,1.85.12,2.77a4.8,4.8,0,0,1-.1,1.85,2.63,2.63,0,0,0-.09.74c-.08,2.74-.16,5.48-.21,8.22,0,1.3,0,2.6,0,3.9,0,1.78-.07,3.56-.11,5.34-.08,3.08-.13,6.16-.23,9.24a20.6,20.6,0,0,1-.32,3.67,5.16,5.16,0,0,0-.07.79c0,.75-.06,1.5-.08,2.24q-.06,3.63-.13,7.26c0,1.75-.08,3.49-.1,5.24s0,3.38,0,5.07c0,.57,0,1.14,0,1.71a.63.63,0,0,0,.24.61c.34.23.68.45,1,.69a1.21,1.21,0,0,1,.39.35c.26.57.81.84,1.24,1.23l0,0c.47.67,1.19,1.08,1.69,1.73a18.08,18.08,0,0,0,1.78,1.83c.32.31.69.55,1,.84a3.2,3.2,0,0,1,.43.47c.37.49.73,1,1.1,1.49a.42.42,0,0,1,.11.18,5.51,5.51,0,0,0,1,1.9,2.27,2.27,0,0,1,.26,1.4c0,.56-.11,1.13-.12,1.7a2.62,2.62,0,0,1-.85,1.88,6.77,6.77,0,0,0-.59.61,2.49,2.49,0,0,1-1,.6m-46-48.93h0c0,.29,0,.57,0,.85a1.87,1.87,0,0,0,.15.67,9.19,9.19,0,0,0,.6.93,3.91,3.91,0,0,0,.6.88,11.67,11.67,0,0,1,1.54,2,6.46,6.46,0,0,0,1.33,1.43c.27.21.56.39.81.61.66.6,1.29,1.22,1.94,1.82a6.24,6.24,0,0,0,1.82,1.45,1.46,1.46,0,0,1,.25.2,4.33,4.33,0,0,0,.53.43c.57.36,1.14.71,1.72,1a.77.77,0,0,0,.34,0c0-.13,0-.28,0-.38-.3-.56-.64-1.1-1-1.64-.22-.39-.45-.77-.66-1.16a11.72,11.72,0,0,0-.61-1.23,4.08,4.08,0,0,1-1-2.07.37.37,0,0,0-.07-.2c-.32-.51-.62-1-1-1.52-.18-.27-.41-.49-.61-.74-.56-.68-1.1-1.39-1.68-2.06a15.34,15.34,0,0,0-1.26-1.29c-.37-.35-.77-.67-1.17-1-.58-.46-1.35-.61-1.92-1.12-.28-.26-.57-.11-.62.3C780.74,308.77,780.71,309.38,780.66,310Zm44.11,46.1c.05,0,.23-.08.3-.19a.45.45,0,0,0,0-.39,13.38,13.38,0,0,0-1.14-1.71,8.79,8.79,0,0,0-1.71-1.94c-.14-.08-.21-.28-.33-.41a3.78,3.78,0,0,0-.4-.4c-.15-.13-.32-.23-.46-.36-.51-.47-1-.95-1.51-1.43a4.84,4.84,0,0,0-.63-.57c-.32-.22-.5-.14-.64.22a1,1,0,0,0,.11,1,4.62,4.62,0,0,1,.3.79,17,17,0,0,0,.64,1.73,16.27,16.27,0,0,0,.94,1.45,5.56,5.56,0,0,0,2.16,1.65,3.43,3.43,0,0,0,1.08.4C823.85,356,824.26,356,824.77,356.08Z" transform="translate(-185.19 -97.74)"/><path class="cls-3" d="M814.16,263.8a4,4,0,0,0-.12.65c0,1.27,0,2.53,0,3.79a1.42,1.42,0,0,0,1,1.56,14.56,14.56,0,0,1,1.83,1.17,15,15,0,0,0,1.55.91,6.12,6.12,0,0,1,.83.47l2.68,1.62,1.24.73.66.45c.08.06.16.17.25.18.49.1.77.49,1.12.77a.94.94,0,0,1,.39.79c0,1.12,0,2.24-.05,3.36a2.94,2.94,0,0,1-.12.59c-.33.05-.41-.18-.57-.31a3.48,3.48,0,0,0-.58-.43c-.35-.22-.71-.4-1.06-.61s-.75-.46-1.13-.69-1-.59-1.45-.9c-.23-.16-.43-.37-.66-.53a24.12,24.12,0,0,1-2.47-1.65.64.64,0,0,0-.18-.1c-.43-.22-.87-.41-1.27-.66-.77-.48-1.52-1-2.29-1.48a3.08,3.08,0,0,0-.67-.29,6.41,6.41,0,0,1-.91-.27,7.54,7.54,0,0,0-3.37-.68l-.66-.06a3,3,0,0,1,.63-1.05c.17-.17.29-.39.45-.58s.55-.65.8-1a4,4,0,0,0,.41-.73,7.83,7.83,0,0,0,.33-3.63c0-.3,0-.6,0-.9v-.63c0-.52,0-1,0-1.54s0-1.11,0-1.65a2,2,0,0,1,.88-1.59,6.85,6.85,0,0,0,1-.63.63.63,0,0,1,.77-.11,16.55,16.55,0,0,1,2.74,1.64c.24.2.47.42.71.64a.27.27,0,0,1,.07.08c.23.51.48,1,.68,1.54.13.33.26.5.61.46a2,2,0,0,0,.79-.27,1.73,1.73,0,0,1,1.82,0c.34.18.62.47,1,.66s.94.5,1.41.74c.1.05.23.05.3.12A12.09,12.09,0,0,0,825.4,265a.91.91,0,0,1,.38.78c0,.42,0,.85,0,1.28,0,.85,0,1.7-.07,2.56,0,.15,0,.31-.06.52a2.2,2.2,0,0,1-.3-.14,26.54,26.54,0,0,0-2.31-1.33c-.78-.46-1.55-.94-2.31-1.43a1.87,1.87,0,0,0-.93-.36,2.64,2.64,0,0,1-1.37-.67,5.08,5.08,0,0,0-1.28-.63,8.92,8.92,0,0,1-1.34-.75c-.25-.14-.5-.26-.74-.41S814.54,264.06,814.16,263.8Z" transform="translate(-185.19 -97.74)"/><path class="cls-3" d="M826.14,233.57l-.72-.29a4.11,4.11,0,0,0-.86-.28,5,5,0,0,1-1.79-.78c-.26-.15-.53-.28-.8-.42-.09-.05-.22-.06-.28-.14-.3-.4-.78-.44-1.2-.62a3.82,3.82,0,0,1-1.47-.82.38.38,0,0,0-.18-.13c-.58-.2-1.16-.41-1.76-.59a1.74,1.74,0,0,1-.9-.42.52.52,0,0,0-.42-.11c-.08,0-.14.24-.14.36q0,1.71,0,3.42a4.43,4.43,0,0,0,.17.94.79.79,0,0,0,.48.54,9.26,9.26,0,0,1,2,1.27,7.7,7.7,0,0,0,1.38.68c.22.11.43.24.64.37,0,0,.07.08.12.1l1.65.71.66.3.52.28c.26.14.52.29.79.42.55.29,1.09.59,1.65.84a.7.7,0,0,1,.49.57,6.12,6.12,0,0,1,0,.74c0,1,0,2-.07,2.94,0,.15,0,.31-.06.51a3.4,3.4,0,0,1-1-.57c-.25-.17-.51-.32-.77-.48l-1.58-.95c-.5-.31-1-.6-1.49-.93a7.64,7.64,0,0,0-1.49-.67,14.56,14.56,0,0,1-1.38-.8,2.21,2.21,0,0,0-.64-.26,2.67,2.67,0,0,1-1.36-.78,1.18,1.18,0,0,0-.74-.38.83.83,0,0,1-.32-.06c-1-.54-2.13-.28-3.19-.43a.55.55,0,0,0-.22,0,10.19,10.19,0,0,1-2.7.2,1.13,1.13,0,0,1-.32,0c-.12,0-.3-.11-.32-.19s.07-.26.15-.36.31-.24.45-.38.51-.59.79-.86c.41-.42.83-.82,1.25-1.22a1.72,1.72,0,0,0,.55-1.18c.1-1.91.19-3.81.25-5.71a8.91,8.91,0,0,0-.14-1.54,1.54,1.54,0,0,1,.73-1.47,14.41,14.41,0,0,0,1.34-.85,1.38,1.38,0,0,1,1.67,0c.44.35.92.66,1.39,1a4.76,4.76,0,0,1,1.28.94.69.69,0,0,0,.22.16l1.64.75c.16.07.3.19.46.27.62.28,1.21.62,1.82.92a8.62,8.62,0,0,1,1.72.92,1.16,1.16,0,0,0,.44.19,4.12,4.12,0,0,1,1.31.56.7.7,0,0,1,.43.63c0,.87,0,1.74,0,2.61A2.2,2.2,0,0,1,826.14,233.57Z" transform="translate(-185.19 -97.74)"/><path class="cls-3" d="M826,250.93v2.29c0,.34,0,.68-.33.91a.29.29,0,0,0,0,.43,1.07,1.07,0,0,1,.23.8c0,1.41,0,2.81,0,4.22a1.3,1.3,0,0,1-.09.52.61.61,0,0,1-.31.32,2.1,2.1,0,0,1-2-.23c-.55-.39-1.15-.7-1.72-1.05l-.9-.56c-.8-.49-1.6-1-2.42-1.45-.58-.33-1.2-.6-1.78-.93a9.29,9.29,0,0,0-1.67-.68,4.81,4.81,0,0,1-2.18-1.47,4.94,4.94,0,0,0-.64-.56,1.63,1.63,0,0,1-.5-.8,9.88,9.88,0,0,1-.3-4,2.06,2.06,0,0,0,0-.43,18.14,18.14,0,0,1,.05-4.1,13.94,13.94,0,0,1,.26-1.41.58.58,0,0,1,.44-.49c.43-.09.87-.18,1.31-.23s1-.09,1.54-.11a4.62,4.62,0,0,1,2.06.4,14.93,14.93,0,0,1,2,1.25.89.89,0,0,0,.23.13,12.36,12.36,0,0,1,2.61,1.62c.46.26.92.52,1.37.79.23.14.44.3.67.43a12.76,12.76,0,0,0,1.38.81,1.09,1.09,0,0,1,.7,1.13c0,.82,0,1.64,0,2.46Zm-9.86-5.78c-.31,0-.56,0-.81.06a1.22,1.22,0,0,0-1,1.2c0,1.22,0,2.45,0,3.68a1.35,1.35,0,0,0,.67,1.24,5.54,5.54,0,0,0,1.53.83,11.82,11.82,0,0,1,1.23.51,2.67,2.67,0,0,1,.36.22c.41.27.8.59,1.23.82.69.37,1.4.69,2.11,1a4.27,4.27,0,0,0,.86.26.41.41,0,0,0,.55-.36,3.05,3.05,0,0,0,0-.74c0-.33-.1-.67-.09-1,0-1,.1-2,.16-3a.6.6,0,0,0-.25-.55l-2.25-1.67a.57.57,0,0,0-.23-.12,5.43,5.43,0,0,1-1.89-1.06,3.34,3.34,0,0,0-.4-.25l-.45-.28c-.36-.25-.72-.51-1.09-.75A.56.56,0,0,0,816.15,245.15Z" transform="translate(-185.19 -97.74)"/><path class="cls-3" d="M826.31,227.49c-.34-.16-.55-.24-.75-.35-.73-.4-1.47-.79-2.19-1.2a10.88,10.88,0,0,1-1.06-.71,8.07,8.07,0,0,0-2-1.13,5.58,5.58,0,0,1-1.16-.82,5,5,0,0,0-.61-.31,5.89,5.89,0,0,1-.66-.34,13.13,13.13,0,0,0-1.07-.77,13.43,13.43,0,0,0-1.6-.71,5.92,5.92,0,0,1-2.49-1.75.62.62,0,0,1-.07-.79,2.79,2.79,0,0,1,.53-.73,16.44,16.44,0,0,1,1.6-1.13c.77-.47,1.57-.9,2.35-1.34.16-.09.32-.16.48-.24s.53-.27.8-.39a10.85,10.85,0,0,1,1.42-.58,11.14,11.14,0,0,1,1.89-.32c.52,0,.72.16.74.68,0,1,.06,1.95.11,2.93,0,.37.07.74.11,1.11s.07.85.1,1.27c0,.64,0,1.28.1,1.92a2,2,0,0,0,.3.77.4.4,0,0,0,.52.17c.2-.09.19-.27.18-.46a49.6,49.6,0,0,1,.1-6.45c0-.49,0-1,0-1.49a2.07,2.07,0,0,1,0-.43.38.38,0,0,1,.65-.22c.46.46.9.95,1.34,1.43a1.62,1.62,0,0,0,.18.19.79.79,0,0,1,.3.71c0,.87,0,1.74,0,2.61q0,4-.12,7.9C826.41,226.81,826.35,227.11,826.31,227.49Zm-6.63-7.27a1.51,1.51,0,0,0,.07-.37c0-.48,0-1,0-1.44a2.28,2.28,0,0,0,0-.37c0-.31-.14-.39-.45-.37a2.82,2.82,0,0,0-1.94,1c-.22.24-.18.45.11.59a2.74,2.74,0,0,1,.4.15l1.63.85S819.59,220.22,819.68,220.22Z" transform="translate(-185.19 -97.74)"/><path class="cls-3" d="M813.48,301.93v3.15a2.35,2.35,0,0,0,0,.53,15.27,15.27,0,0,1,.22,4.72c0,.21,0,.43,0,.64,0,.55-.41.75-.88.46a6.59,6.59,0,0,1-.88-.7,10.22,10.22,0,0,0-1.85-1.42.8.8,0,0,1-.37-.49,7.43,7.43,0,0,1-.4-2.72c0-.34,0-.68.13-1a6.43,6.43,0,0,0,.18-1.85,3.15,3.15,0,0,1,.3-1.45.62.62,0,0,0,0-.5,7.19,7.19,0,0,1-.53-2.86c0-1.34-.07-2.67-.09-4a2.68,2.68,0,0,1,.1-.85c.1-.38.35-.46.7-.28l.18.11,2.2,1.84c.2.17.41.34.6.53a2.42,2.42,0,0,1,.57,1.88l-.12,3.41c0,.29,0,.57,0,.86Z" transform="translate(-185.19 -97.74)"/><path class="cls-3" d="M813.41,284.57c0,.66-.07,1.31-.11,2,0,.18,0,.36,0,.53a1.21,1.21,0,0,0,.85,1.32,1.14,1.14,0,0,1,.77,1.25c0,.87,0,1.74,0,2.61a2.44,2.44,0,0,1,0,.27.51.51,0,0,1-.8.39,5.07,5.07,0,0,1-.46-.35c-.51-.35-1-.69-1.53-1.06a8.94,8.94,0,0,0-1.09-.83,2,2,0,0,1-.84-2.08,2.51,2.51,0,0,0,0-1.36,3,3,0,0,1-.09-.85c0-1.49,0-3,0-4.48s.09-3.13.13-4.69a1.57,1.57,0,0,1,0-.37c.1-.37.36-.49.68-.29.65.41,1.28.84,1.91,1.26.09.06.17.16.26.18a5.11,5.11,0,0,1,1.64,1.07c.26.19.54.34.81.51a1.11,1.11,0,0,1,.64,1.13c0,.55,0,1.1,0,1.65a2.65,2.65,0,0,1-.07.63c-.11.41-.26.44-.65.29a7.6,7.6,0,0,1-1.28-.63c-.58-.35-.75-.23-.77.44,0,.49,0,1,0,1.49Z" transform="translate(-185.19 -97.74)"/><path class="cls-3" d="M809.73,322.64v2.45c0,.23,0,.47,0,.69a.69.69,0,0,0,.59.66,2.92,2.92,0,0,1,1.18.59c.36.27.79.45,1.15.73a1,1,0,0,1,.44.86c0,.5,0,1,0,1.49a4.65,4.65,0,0,0,.18,1.53,1.54,1.54,0,0,1-.34,1.3c-.14.24-.38.23-.59,0a3.3,3.3,0,0,1-.22-.3c-.09-.11-.17-.26-.29-.3a8.6,8.6,0,0,1-1.69-1.19.86.86,0,0,0-.23-.13,3.9,3.9,0,0,1-1.52-1.21.69.69,0,0,1-.18-.69,12.17,12.17,0,0,0,.21-3.13c0-.66.06-1.32.06-2,0-.45,0-.89,0-1.34q0-3.7,0-7.41c0-.5,0-1,.09-1.49,0-.32.11-.62.46-.71s.52.08.74.3a10.67,10.67,0,0,0,1,.81c.28.22.59.4.85.63a3.4,3.4,0,0,0,1.09.83.84.84,0,0,1,.5.66,5.51,5.51,0,0,1,.1.9c0,1.08,0,2.17,0,3.25a2.23,2.23,0,0,1-.09.63c-.1.36-.37.45-.64.21-.67-.58-1.33-1.18-2-1.77a1.31,1.31,0,0,0-.34-.24c-.23-.1-.38,0-.43.23a2.38,2.38,0,0,0,0,.38v2.72Z" transform="translate(-185.19 -97.74)"/><path class="cls-3" d="M824.69,328c0,.42,0,.85,0,1.28s-.1.63-.12.94a8,8,0,0,0,0,.85v1a2.59,2.59,0,0,0,0,.48c.14,1.49,0,3,0,4.47,0,.78,0,1.56,0,2.35,0,1.16-.7,1.34-1.6.92a1.48,1.48,0,0,1-.7-.84c-.22-.54-.68-.9-.93-1.41a1.55,1.55,0,0,1-.24-.68c0-1.21.13-2.42.21-3.62,0-.34.09-.68.09-1,0-1.09-.06-2.17,0-3.26s.08-2.38.13-3.57c0-.21,0-.43,0-.64q0-1.28-.12-2.55c0-.55.27-.81.79-.64a1.3,1.3,0,0,1,.41.24c.37.33.75.66,1.09,1a4.21,4.21,0,0,1,.76,1.58A6.25,6.25,0,0,1,824.69,328Z" transform="translate(-185.19 -97.74)"/><path class="cls-3" d="M825,312c0,1.25,0,2.49,0,3.74s0,2.24-.07,3.36a2.11,2.11,0,0,1,0,.26c0,.45-.25.6-.69.46a3.76,3.76,0,0,1-1.9-1.11,5.32,5.32,0,0,1-.38-.45,1.14,1.14,0,0,1-.23-.56,8,8,0,0,1,0-2.18.5.5,0,0,0,0-.21,16.29,16.29,0,0,1,0-3.2c.1-1.83.13-3.66.1-5.49a10.65,10.65,0,0,0-.17-1.48,3.67,3.67,0,0,1,.37-2.43.67.67,0,0,1,.87-.31,4.14,4.14,0,0,1,2.05,1.63,1.48,1.48,0,0,1,.18.82c0,1.24,0,2.49,0,3.74s0,2.27-.08,3.41Z" transform="translate(-185.19 -97.74)"/><path class="cls-3" d="M822.9,289.46v-3.15a1.82,1.82,0,0,0-.44-1.43,1.07,1.07,0,0,1-.2-.54c-.06-.37.17-.56.51-.42a2.71,2.71,0,0,1,.81.51,3.45,3.45,0,0,0,.92.7l.37.22a1.15,1.15,0,0,1,.6,1.1c0,2.15-.06,4.31-.09,6.46,0,1.25,0,2.49,0,3.74l-.06,2.4v.1c0,.66-.43.88-1,.53a7.11,7.11,0,0,1-.84-.72,5.2,5.2,0,0,0-.44-.38c-.31-.2-.63-.4-1-.57a1.41,1.41,0,0,1-.75-1.42c.05-1,.13-2,.22-3a.63.63,0,0,1,.24-.43.39.39,0,0,1,.52.1,1.14,1.14,0,0,0,.16.15c.26.17.43.08.48-.23a1.47,1.47,0,0,0,0-.21v-3.47Z" transform="translate(-185.19 -97.74)"/><path class="cls-2" d="M780.66,310c.05-.6.08-1.21.15-1.81.05-.41.34-.56.62-.3.57.51,1.34.66,1.92,1.12.4.32.8.64,1.17,1a15.34,15.34,0,0,1,1.26,1.29c.58.67,1.12,1.38,1.68,2.06.2.25.43.47.61.74.34.49.64,1,1,1.52a.37.37,0,0,1,.07.2,4.08,4.08,0,0,0,1,2.07,11.72,11.72,0,0,1,.61,1.23c.21.39.44.77.66,1.16.32.54.66,1.08,1,1.64.06.1,0,.25,0,.38a.77.77,0,0,1-.34,0c-.58-.33-1.15-.68-1.72-1a4.33,4.33,0,0,1-.53-.43,1.46,1.46,0,0,0-.25-.2,6.24,6.24,0,0,1-1.82-1.45c-.65-.6-1.28-1.22-1.94-1.82-.25-.22-.54-.4-.81-.61a6.46,6.46,0,0,1-1.33-1.43,11.67,11.67,0,0,0-1.54-2,3.91,3.91,0,0,1-.6-.88,9.19,9.19,0,0,1-.6-.93,1.87,1.87,0,0,1-.15-.67c0-.28,0-.56,0-.85Z" transform="translate(-185.19 -97.74)"/><path class="cls-2" d="M824.77,356.08c-.51-.06-.92-.06-1.32-.15a3.43,3.43,0,0,1-1.08-.4,5.56,5.56,0,0,1-2.16-1.65,16.27,16.27,0,0,1-.94-1.45,17,17,0,0,1-.64-1.73,4.62,4.62,0,0,0-.3-.79,1,1,0,0,1-.11-1c.14-.36.32-.44.64-.22a4.84,4.84,0,0,1,.63.57c.51.48,1,1,1.51,1.43.14.13.31.23.46.36a3.78,3.78,0,0,1,.4.4c.12.13.19.33.33.41a8.79,8.79,0,0,1,1.71,1.94A13.38,13.38,0,0,1,825,355.5a.45.45,0,0,1,0,.39C825,356,824.82,356.05,824.77,356.08Z" transform="translate(-185.19 -97.74)"/><path class="cls-2" d="M816.15,245.15a.56.56,0,0,1,.24.07c.37.24.73.5,1.09.75l.45.28a3.34,3.34,0,0,1,.4.25,5.43,5.43,0,0,0,1.89,1.06.57.57,0,0,1,.23.12l2.25,1.67a.6.6,0,0,1,.25.55c-.06,1-.13,2-.16,3,0,.33.07.67.09,1a3.05,3.05,0,0,1,0,.74.41.41,0,0,1-.55.36,4.27,4.27,0,0,1-.86-.26c-.71-.32-1.42-.64-2.11-1-.43-.23-.82-.55-1.23-.82a2.67,2.67,0,0,0-.36-.22,11.82,11.82,0,0,0-1.23-.51,5.54,5.54,0,0,1-1.53-.83,1.35,1.35,0,0,1-.67-1.24c0-1.23,0-2.46,0-3.68a1.22,1.22,0,0,1,1-1.2C815.59,245.17,815.84,245.17,816.15,245.15Z" transform="translate(-185.19 -97.74)"/><path class="cls-2" d="M819.68,220.22c-.09,0-.13,0-.16,0l-1.63-.85a2.74,2.74,0,0,0-.4-.15c-.29-.14-.33-.35-.11-.59a2.82,2.82,0,0,1,1.94-1c.31,0,.42.06.45.37a2.28,2.28,0,0,1,0,.37c0,.48,0,1,0,1.44A1.51,1.51,0,0,1,819.68,220.22Z" transform="translate(-185.19 -97.74)"/></g><circle class="cls-4" cx="390.54" cy="140.15" r="25.31"/><circle class="cls-5" cx="389" cy="139.15" r="22.94"/><circle class="cls-6" cx="389.54" cy="137.54" r="19.77"/><path class="cls-4" d="M573.41,270.61l-.24,17.83a2.34,2.34,0,0,0,.59,1.71h0a2,2,0,0,0,3.17-.2l0,0a2.28,2.28,0,0,0,.38-1.69l-2-17.66C575.09,268.52,573.44,268.56,573.41,270.61Z" transform="translate(-185.19 -97.74)"/><path class="cls-4" d="M592.71,263.44l9.08,15.34a2.36,2.36,0,0,0,1.39,1.16h0a2.05,2.05,0,0,0,2.61-1.82v0a2.32,2.32,0,0,0-.56-1.65l-10.91-14C593.05,260.78,591.67,261.67,592.71,263.44Z" transform="translate(-185.19 -97.74)"/><path class="cls-4" d="M604,251.26l13.78,11.31a2.38,2.38,0,0,0,1.71.61h0a2,2,0,0,0,1.82-2.6v0a2.34,2.34,0,0,0-1.1-1.35l-15.05-9.45C603.43,248.65,602.43,250,604,251.26Z" transform="translate(-185.19 -97.74)"/></g></svg>