<svg width="96" height="58" viewBox="0 0 96 58" fill="none" xmlns="http://www.w3.org/2000/svg">
<path d="M9.5625 6.05273C9.5625 5.59505 9.3457 5.30599 8.91211 5.18555C8.5026 5.04102 7.17773 4.96875 4.9375 4.96875V53.5312C7.17773 53.5312 8.5026 53.459 8.91211 53.3145C9.3457 53.1699 9.5625 52.8688 9.5625 52.4111V6.05273ZM14.1875 52.1221C14.1875 53.3506 13.9225 54.3021 13.3926 54.9766C12.8867 55.627 12.1279 56.1087 11.1162 56.4219C10.6344 56.5664 10.0443 56.6868 9.3457 56.7832C8.64714 56.8555 7.68359 56.9157 6.45508 56.9639C5.22656 56.988 4.14258 57 3.20312 57H0.3125V1.5C1.30013 1.5 2.28776 1.51204 3.27539 1.53613C4.28711 1.53613 5.31087 1.54818 6.34668 1.57227C8.46647 1.62044 10.0322 1.77702 11.0439 2.04199C12.0798 2.33105 12.8626 2.80078 13.3926 3.45117C13.9225 4.07747 14.1875 4.98079 14.1875 6.16113V52.1221Z" fill="#244D4D"/>
<path d="M28.0625 4.96875H23.4375V25.7812H28.0625V29.25H23.4375V53.5312H28.0625V57H18.8125V1.5H28.0625V4.96875Z" fill="#244D4D"/>
<path d="M45.4062 24.625H40.7812V6.70312C40.7812 5.88411 40.5765 5.30599 40.167 4.96875C39.7575 4.60742 39.2878 4.42676 38.7578 4.42676C38.4447 4.42676 38.1315 4.48698 37.8184 4.60742C37.5293 4.70378 37.2523 4.86035 36.9873 5.07715C36.7464 5.26986 36.5417 5.51074 36.373 5.7998C36.2285 6.06478 36.1562 6.36589 36.1562 6.70312V51.7969C36.1562 52.1341 36.2285 52.4473 36.373 52.7363C36.5417 53.0254 36.7464 53.2783 36.9873 53.4951C37.2523 53.6878 37.5293 53.8444 37.8184 53.9648C38.1315 54.0612 38.4447 54.1094 38.7578 54.1094C39.2878 54.1094 39.7575 53.9287 40.167 53.5674C40.5765 53.2061 40.7812 52.6159 40.7812 51.7969V31.5625H45.4062V51.7969C45.4062 52.7604 45.2015 53.6156 44.792 54.3623C44.3825 55.085 43.8525 55.6992 43.2021 56.2051C42.5518 56.6868 41.805 57.0482 40.9619 57.2891C40.1188 57.554 39.2637 57.6865 38.3965 57.6865C37.5293 57.6865 36.6862 57.5661 35.8672 57.3252C35.0482 57.0843 34.3135 56.723 33.6631 56.2412C33.0127 55.7354 32.4948 55.1211 32.1094 54.3984C31.724 53.6517 31.5312 52.7845 31.5312 51.7969V6.70312C31.5312 5.73958 31.724 4.88444 32.1094 4.1377C32.5189 3.39095 33.0488 2.77669 33.6992 2.29492C34.3496 1.81315 35.0964 1.45182 35.9395 1.21094C36.7826 0.945964 37.6377 0.813477 38.5049 0.813477C39.3721 0.813477 40.2152 0.933919 41.0342 1.1748C41.8532 1.41569 42.5879 1.78906 43.2383 2.29492C43.8887 2.77669 44.4066 3.39095 44.792 4.1377C45.2015 4.86035 45.4062 5.71549 45.4062 6.70312V24.625Z" fill="#244D4D"/>
<path d="M63.9062 51.7969C63.9062 52.8086 63.7135 53.6878 63.3281 54.4346C62.9668 55.1572 62.473 55.7594 61.8467 56.2412C61.2204 56.723 60.5098 57.0723 59.7148 57.2891C58.9199 57.5299 58.1009 57.6504 57.2578 57.6504C56.3665 57.6504 55.4873 57.5179 54.6201 57.2529C53.7529 57.012 52.9821 56.6507 52.3076 56.1689C51.6331 55.6631 51.0791 55.0488 50.6455 54.3262C50.236 53.5794 50.0312 52.7363 50.0312 51.7969V6.70312C50.0312 5.78776 50.236 4.98079 50.6455 4.28223C51.0791 3.55957 51.6331 2.95736 52.3076 2.47559C53.0062 1.99382 53.7891 1.63249 54.6562 1.3916C55.5234 1.12663 56.4027 0.994141 57.2939 0.994141C58.137 0.994141 58.9561 1.11458 59.751 1.35547C60.5459 1.57227 61.2445 1.92155 61.8467 2.40332C62.473 2.861 62.9668 3.45117 63.3281 4.17383C63.7135 4.89648 63.9062 5.73958 63.9062 6.70312V51.7969ZM59.2812 6.70312C59.2812 5.88411 59.0765 5.30599 58.667 4.96875C58.2816 4.60742 57.8239 4.42676 57.2939 4.42676C56.9808 4.42676 56.6676 4.48698 56.3545 4.60742C56.0413 4.70378 55.7523 4.86035 55.4873 5.07715C55.2464 5.26986 55.0417 5.51074 54.873 5.7998C54.7285 6.06478 54.6562 6.36589 54.6562 6.70312V51.7969C54.6562 52.1341 54.7285 52.4473 54.873 52.7363C55.0417 53.0254 55.2464 53.2663 55.4873 53.459C55.7523 53.6517 56.0293 53.8083 56.3184 53.9287C56.6315 54.0251 56.9447 54.0732 57.2578 54.0732C57.7878 54.0732 58.2575 53.9046 58.667 53.5674C59.0765 53.2061 59.2812 52.6159 59.2812 51.7969V6.70312Z" fill="#244D4D"/>
<path d="M81.25 24.625C81.25 25.7812 80.9609 26.6725 80.3828 27.2988C79.8047 27.9251 78.9375 28.3708 77.7812 28.6357C78.9375 28.9489 79.8047 29.4186 80.3828 30.0449C80.9609 30.6712 81.25 31.5625 81.25 32.7188V57H76.625V32.7188C76.625 32.1406 76.5527 31.695 76.4082 31.3818C76.2637 31.0687 76.0469 30.8398 75.7578 30.6953C75.4688 30.5508 75.1074 30.4665 74.6738 30.4424C74.2402 30.4183 73.7344 30.4062 73.1562 30.4062V57H68.5312V1.5H73.7344C75.3001 1.5 76.637 1.63249 77.7451 1.89746C78.8773 2.13835 79.7445 2.58398 80.3467 3.23438C80.9489 3.86068 81.25 4.82422 81.25 6.125V24.625ZM76.625 7.28125C76.625 6.70312 76.5527 6.25749 76.4082 5.94434C76.2637 5.63118 76.0469 5.40234 75.7578 5.25781C75.4688 5.11328 75.1074 5.02897 74.6738 5.00488C74.2402 4.98079 73.7344 4.96875 73.1562 4.96875V26.9375C73.7344 26.9375 74.2402 26.9255 74.6738 26.9014C75.1074 26.8773 75.4688 26.793 75.7578 26.6484C76.0469 26.5039 76.2637 26.2751 76.4082 25.9619C76.5527 25.6488 76.625 25.2031 76.625 24.625V7.28125Z" fill="#244D4D"/>
<path d="M95.125 4.96875H90.5V25.7812H95.125V29.25H90.5V53.5312H95.125V57H85.875V1.5H95.125V4.96875Z" fill="#244D4D"/>
</svg>
