<svg id="Group_139" data-name="Group 139" xmlns="http://www.w3.org/2000/svg" width="80" height="230" viewBox="0 0 80 230">
  <path id="Path_436" data-name="Path 436" d="M2.5,5A2.5,2.5,0,1,0,0,2.5,2.5,2.5,0,0,0,2.5,5Z" fill="#244d4d"/>
  <path id="Path_437" data-name="Path 437" d="M27.5,5A2.5,2.5,0,1,0,25,2.5,2.5,2.5,0,0,0,27.5,5Z" fill="#244d4d"/>
  <path id="Path_438" data-name="Path 438" d="M52.5,5A2.5,2.5,0,1,0,50,2.5,2.5,2.5,0,0,0,52.5,5Z" fill="#244d4d"/>
  <path id="Path_439" data-name="Path 439" d="M77.5,5A2.5,2.5,0,1,0,75,2.5,2.5,2.5,0,0,0,77.5,5Z" fill="#244d4d"/>
  <path id="Path_440" data-name="Path 440" d="M2.5,30A2.5,2.5,0,1,0,0,27.5,2.5,2.5,0,0,0,2.5,30Z" fill="#244d4d"/>
  <path id="Path_441" data-name="Path 441" d="M27.5,30A2.5,2.5,0,1,0,25,27.5,2.5,2.5,0,0,0,27.5,30Z" fill="#244d4d"/>
  <path id="Path_442" data-name="Path 442" d="M52.5,30A2.5,2.5,0,1,0,50,27.5,2.5,2.5,0,0,0,52.5,30Z" fill="#244d4d"/>
  <path id="Path_443" data-name="Path 443" d="M77.5,30A2.5,2.5,0,1,0,75,27.5,2.5,2.5,0,0,0,77.5,30Z" fill="#244d4d"/>
  <path id="Path_444" data-name="Path 444" d="M2.5,55A2.5,2.5,0,1,0,0,52.5,2.5,2.5,0,0,0,2.5,55Z" fill="#244d4d"/>
  <path id="Path_445" data-name="Path 445" d="M27.5,55A2.5,2.5,0,1,0,25,52.5,2.5,2.5,0,0,0,27.5,55Z" fill="#c8e1de"/>
  <path id="Path_446" data-name="Path 446" d="M52.5,55A2.5,2.5,0,1,0,50,52.5,2.5,2.5,0,0,0,52.5,55Z" fill="#c8e1de"/>
  <path id="Path_447" data-name="Path 447" d="M77.5,55A2.5,2.5,0,1,0,75,52.5,2.5,2.5,0,0,0,77.5,55Z" fill="#244d4d"/>
  <path id="Path_448" data-name="Path 448" d="M2.5,80A2.5,2.5,0,1,0,0,77.5,2.5,2.5,0,0,0,2.5,80Z" fill="#244d4d"/>
  <path id="Path_449" data-name="Path 449" d="M27.5,80A2.5,2.5,0,1,0,25,77.5,2.5,2.5,0,0,0,27.5,80Z" fill="#c8e1de"/>
  <path id="Path_450" data-name="Path 450" d="M52.5,80A2.5,2.5,0,1,0,50,77.5,2.5,2.5,0,0,0,52.5,80Z" fill="#c8e1de"/>
  <path id="Path_451" data-name="Path 451" d="M77.5,80A2.5,2.5,0,1,0,75,77.5,2.5,2.5,0,0,0,77.5,80Z" fill="#244d4d"/>
  <path id="Path_452" data-name="Path 452" d="M2.5,105A2.5,2.5,0,1,0,0,102.5,2.5,2.5,0,0,0,2.5,105Z" fill="#244d4d"/>
  <path id="Path_453" data-name="Path 453" d="M27.5,105a2.5,2.5,0,1,0-2.5-2.5A2.5,2.5,0,0,0,27.5,105Z" fill="#c8e1de"/>
  <path id="Path_454" data-name="Path 454" d="M52.5,105a2.5,2.5,0,1,0-2.5-2.5A2.5,2.5,0,0,0,52.5,105Z" fill="#c8e1de"/>
  <path id="Path_455" data-name="Path 455" d="M77.5,105a2.5,2.5,0,1,0-2.5-2.5A2.5,2.5,0,0,0,77.5,105Z" fill="#244d4d"/>
  <path id="Path_456" data-name="Path 456" d="M2.5,130A2.5,2.5,0,1,0,0,127.5,2.5,2.5,0,0,0,2.5,130Z" fill="#244d4d"/>
  <path id="Path_457" data-name="Path 457" d="M27.5,130a2.5,2.5,0,1,0-2.5-2.5A2.5,2.5,0,0,0,27.5,130Z" fill="#c8e1de"/>
  <path id="Path_458" data-name="Path 458" d="M52.5,130a2.5,2.5,0,1,0-2.5-2.5A2.5,2.5,0,0,0,52.5,130Z" fill="#c8e1de"/>
  <path id="Path_459" data-name="Path 459" d="M77.5,130a2.5,2.5,0,1,0-2.5-2.5A2.5,2.5,0,0,0,77.5,130Z" fill="#244d4d"/>
  <path id="Path_460" data-name="Path 460" d="M2.5,155A2.5,2.5,0,1,0,0,152.5,2.5,2.5,0,0,0,2.5,155Z" fill="#244d4d"/>
  <path id="Path_461" data-name="Path 461" d="M27.5,155a2.5,2.5,0,1,0-2.5-2.5A2.5,2.5,0,0,0,27.5,155Z" fill="#c8e1de"/>
  <path id="Path_462" data-name="Path 462" d="M52.5,155a2.5,2.5,0,1,0-2.5-2.5A2.5,2.5,0,0,0,52.5,155Z" fill="#c8e1de"/>
  <path id="Path_463" data-name="Path 463" d="M77.5,155a2.5,2.5,0,1,0-2.5-2.5A2.5,2.5,0,0,0,77.5,155Z" fill="#244d4d"/>
  <path id="Path_464" data-name="Path 464" d="M2.5,180A2.5,2.5,0,1,0,0,177.5,2.5,2.5,0,0,0,2.5,180Z" fill="#244d4d"/>
  <path id="Path_465" data-name="Path 465" d="M27.5,180a2.5,2.5,0,1,0-2.5-2.5A2.5,2.5,0,0,0,27.5,180Z" fill="#c8e1de"/>
  <path id="Path_466" data-name="Path 466" d="M52.5,180a2.5,2.5,0,1,0-2.5-2.5A2.5,2.5,0,0,0,52.5,180Z" fill="#c8e1de"/>
  <path id="Path_467" data-name="Path 467" d="M77.5,180a2.5,2.5,0,1,0-2.5-2.5A2.5,2.5,0,0,0,77.5,180Z" fill="#244d4d"/>
  <path id="Path_468" data-name="Path 468" d="M2.5,205A2.5,2.5,0,1,0,0,202.5,2.5,2.5,0,0,0,2.5,205Z" fill="#244d4d"/>
  <path id="Path_469" data-name="Path 469" d="M27.5,205a2.5,2.5,0,1,0-2.5-2.5A2.5,2.5,0,0,0,27.5,205Z" fill="#244d4d"/>
  <path id="Path_470" data-name="Path 470" d="M52.5,205a2.5,2.5,0,1,0-2.5-2.5A2.5,2.5,0,0,0,52.5,205Z" fill="#244d4d"/>
  <path id="Path_471" data-name="Path 471" d="M77.5,205a2.5,2.5,0,1,0-2.5-2.5A2.5,2.5,0,0,0,77.5,205Z" fill="#244d4d"/>
  <path id="Path_472" data-name="Path 472" d="M2.5,230A2.5,2.5,0,1,0,0,227.5,2.5,2.5,0,0,0,2.5,230Z" fill="#244d4d"/>
  <path id="Path_473" data-name="Path 473" d="M27.5,230a2.5,2.5,0,1,0-2.5-2.5A2.5,2.5,0,0,0,27.5,230Z" fill="#244d4d"/>
  <path id="Path_474" data-name="Path 474" d="M52.5,230a2.5,2.5,0,1,0-2.5-2.5A2.5,2.5,0,0,0,52.5,230Z" fill="#244d4d"/>
  <path id="Path_475" data-name="Path 475" d="M77.5,230a2.5,2.5,0,1,0-2.5-2.5A2.5,2.5,0,0,0,77.5,230Z" fill="#244d4d"/>
</svg>
